<svg width="796" height="676" viewBox="0 0 796 676" fill="none" xmlns="http://www.w3.org/2000/svg">
<path d="M734.975 162.052C745.219 123.321 785.208 100.159 824.41 110.475C863.808 120.596 888.039 160.301 877.795 199.033C867.355 237.959 826.577 260.536 787.178 250.415C747.977 240.295 724.534 200.979 734.975 162.052ZM319.122 54.0314C329.366 15.2996 369.158 -7.86165 408.557 2.45387C447.759 12.5747 472.186 52.2798 461.943 91.0116C451.699 129.938 410.724 152.515 371.325 142.395C331.927 132.079 308.682 92.9579 319.122 54.0314Z" fill="#F9F9F9"/>
<path d="M51.4069 293.624C80.365 297.711 106.565 330.604 130.007 345.98C160.935 369.53 196.197 390.551 229.883 408.651C265.145 429.672 300.604 444.853 336.457 460.034C375.658 475.021 416.633 487.867 459.38 498.961C546.057 521.344 636.28 533.995 725.715 537.109C782.843 538.86 840.562 533.605 901.039 527.961C935.119 522.511 991.657 494.484 984.171 549.565C981.807 572.532 967.623 598.613 952.651 613.794C920.148 641.042 873.264 650.19 833.865 657.781C785.208 668.875 736.156 672.767 686.317 675.298C636.674 676.66 589.987 676.465 540.935 670.821C494.051 666.929 452.879 658.754 418.012 649.606C374.279 638.318 329.561 625.277 291.739 609.707C251.355 594.525 215.502 575.646 181.619 553.652C145.373 532.243 113.854 506.357 82.7288 478.135C53.7708 446.994 4.12859 398.531 0.385713 353.57C-2.76618 329.047 13.7812 298.879 36.0415 291.677C41.9513 292.067 45.497 291.677 51.2098 293.234L51.4069 293.624Z" fill="#F9F9F9"/>
</svg>
