<svg width="389" height="176" viewBox="0 0 389 176" fill="none" xmlns="http://www.w3.org/2000/svg">
<path d="M39.0905 45.0608C25.8261 54.7878 3.22892 47.1824 3.22892 30.3397C3.22892 25.2314 4.88076 21.1024 7.60631 17.9035H5.85535C2.63426 17.9035 0.106934 15.6024 0.106934 12.7952C0.106934 9.98812 2.63426 7.60533 5.85535 7.60533H18.7067V4.52077C18.7067 2.02374 21.2505 0 24.356 0C27.4615 0 30.0053 2.00742 30.0053 4.52077V7.60533H43.5504C46.7715 7.60533 49.2989 9.92284 49.2989 12.7952C49.2989 15.6676 46.7715 17.9035 43.5504 17.9035H42.3776C45.1032 21.086 46.8706 25.2314 46.8706 30.3397C46.8706 36.2967 44.0295 41.405 39.0739 45.0608H39.0905ZM8.39919 80.0192C7.12727 79.0563 6.73083 76.6572 6.73083 75.2047C6.63172 72.8872 6.3509 70.586 6.3509 68.3664C6.3509 65.086 6.25179 61.8219 6.84646 58.6394C7.22638 56.6157 8.01927 55.4569 9.96844 54.6898C11.7194 54.0207 13.5695 53.629 15.4195 53.629H61.3243C63.769 53.7269 66.4946 53.8249 68.8402 54.8694C71.3675 55.9302 72.0613 58.6394 72.243 61.1364C72.4412 65.5593 72.6394 72.9851 71.3675 77.6038C70.971 79.04 70.6737 80.1987 69.121 80.6883C67.7665 81.1779 66.1146 81.2596 64.7436 81.2596L13.9659 81.0637C12.3141 80.9658 10.1667 81.1616 8.71304 80.1987C8.61393 80.1987 8.51482 80.1008 8.43223 80.0029L8.39919 80.0192ZM34.6966 30.2255C34.6966 18.7685 15.403 18.2952 15.403 30.3234C15.403 37.2433 21.647 39.267 26.999 38.2062C31.0955 37.4228 34.6966 35.1216 34.6966 30.2092V30.2255ZM18.3268 70.488C18.8223 70.9777 21.0523 70.6839 21.0523 70.6839H51.5619C51.5619 70.6839 56.1375 71.0756 58.5657 70.7818C59.8376 70.6839 59.9367 70.1127 60.0358 68.9539C60.1349 67.8931 60.3332 66.359 59.5403 65.3961C58.6648 64.3352 56.7156 64.5311 55.4437 64.6127H28.3535C25.5288 64.4168 22.8033 64.5148 19.9786 64.6127C18.9049 64.6127 18.4259 64.4168 18.1286 65.5756C17.9303 66.4406 17.9303 67.3219 17.9303 68.0889C18.0294 68.2848 17.9303 68.5786 17.9303 68.9539C17.9303 69.5251 17.9303 70.1943 18.3268 70.488ZM70.1782 33.1142V42.7433C70.079 44.0816 69.8808 45.632 69.0879 47.0682C68.708 47.8516 68.1299 48.5207 67.4361 48.994C66.4615 49.6631 65.2887 49.9569 64.215 49.9569C63.2404 49.9569 62.2658 49.7611 61.4895 49.2878C58.863 47.7373 58.4666 44.1795 58.4666 44.0816V11.457C58.3675 10.9673 58.5657 7.9807 59.3421 6.44658C59.9202 5.20623 61.3904 4.32492 63.2404 4.1454C65.4704 3.85163 67.5187 4.42284 68.5924 5.5816C69.3853 6.5445 69.567 7.50741 69.8643 8.56824C70.2608 9.82491 70.2608 11.3754 70.1616 12.7136V19.3561C70.1616 19.3561 70.0625 20.6127 70.1616 22.4406C71.2353 22.5386 76.4882 22.6365 77.661 22.9302C80.1883 23.4199 81.0638 24.4644 81.3611 25.819C81.7576 27.1572 81.8567 29.3768 81.0638 30.6335C79.5111 33.1305 76.1909 33.0489 72.3916 33.1305H70.1616L70.1782 33.1142Z" fill="#C9E3EA"/>
<path d="M126.968 19.3398V56.6973C126.968 57.089 127.249 64.6943 126.968 68.7255C126.77 71.2225 126.275 74.2255 123.252 75.5637C122.079 75.9391 121.022 76.2329 120.245 76.2329C118.693 76.2329 117.503 75.4495 116.826 74.1112C115.951 72.1854 115.571 69.9658 115.472 67.5667V63.4213C115.472 61.8872 115.372 60.4347 115.372 58.9006V27.9896C115.372 25.9659 115.472 23.8442 115.174 21.9184C115.075 21.2493 114.976 19.7967 114.381 19.5193C113.803 19.2255 113.027 19.4214 112.234 19.3234C111.458 19.2255 110.004 19.4214 109.112 19.3234C107.757 19.3234 106.188 19.2255 105.015 18.4585C103.463 17.2018 102.984 16.8101 102.984 14.6884C102.984 13.5297 103.083 12.4852 103.661 11.3264C103.859 10.8368 104.239 10.2656 104.834 9.79229C105.412 9.22107 106.684 8.73146 107.559 8.43769C110.087 7.94808 109.029 7.94808 112.135 7.94808C112.812 7.94808 117.883 7.94808 118.858 8.046H119.353C120.328 7.94808 121.303 7.94808 121.98 7.94808H134.17C134.749 7.94808 135.426 7.94808 136.021 8.046C137.573 8.14392 138.548 8.33977 140.018 8.91098C140.893 9.30268 141.951 9.97181 142.446 10.8368C143.536 12.5668 143.421 14.2967 143.619 16.3205C143.999 19.6988 143.817 24.1217 143.817 27.5816V35.1869H150.441V13.905C150.441 12.273 150.342 10.4288 150.722 8.79674C150.92 8.22552 151.118 7.63799 151.416 7.05045C152.192 5.8101 152.77 5.14096 154.24 4.65134C154.819 4.4555 155.711 4.35758 156.289 4.35758C158.436 4.35758 159.708 5.41841 160.782 7.2463C161.756 8.87834 161.657 13.497 161.657 13.9866C161.756 60.7774 161.657 68.9703 161.657 68.9703C161.657 72.1528 161.558 73.491 160.583 76.494C159.906 78.4035 158.832 79.856 156.008 79.856C155.215 79.856 153.86 79.6602 153.183 79.1869C150.557 77.5548 150.557 71.5816 150.557 69.6557L150.458 47.8026L143.834 47.6068V56.6647C143.933 57.0563 144.032 64.6617 143.834 68.6928C143.636 72.4629 141.604 76.2002 137.111 76.2002C135.641 76.2002 134.782 75.4169 133.989 74.0786C133.113 72.1528 132.733 69.9332 132.733 67.5341C132.733 66.0816 132.733 64.6454 132.634 63.3887V27.957C132.634 25.9332 132.634 23.8116 132.353 21.8857C132.353 21.2166 131.858 19.1929 129.231 19.3887C128.439 19.2908 127.761 19.3887 127.001 19.2908L126.968 19.3398ZM175.103 79.3338C173.749 80.1988 172.576 80.3946 170.907 80.0029C167.009 79.1379 166.53 74.8946 166.53 71.6305V15.0148C166.431 12.1261 166.53 7.31158 168.281 5.56529C169.751 4.32494 170.329 4.12909 172.08 4.12909C174.327 4.12909 176.276 5.46737 177.052 7.4911C178.225 10.184 178.126 13.0727 178.225 15.9777V16.4674C178.522 26.178 178.225 35.905 178.225 44.9629V68.0727C178.225 71.451 178.225 74.5356 176.97 77.2284C176.573 78.0934 175.995 78.7626 175.12 79.3501L175.103 79.3338Z" fill="#C9E3EA"/>
<path d="M250.097 15.2107C250.972 16.8427 250.675 19.8294 249.42 21.4614C246.892 24.6439 237.13 23.5831 235.379 23.681C234.404 23.7789 233.43 23.7789 232.257 23.7789H229.135C228.16 23.681 227.186 23.681 226.112 23.681L214.615 23.4852C207.991 23.4852 205.448 21.8531 204.969 18.2952C204.671 16.3694 205.249 14.819 206.422 13.7745C208.19 12.2404 209.164 12.0445 211.097 12.0445C211.592 12.0445 212.171 12.1424 212.65 12.1424H215.094C216.944 12.1424 219.67 12.0445 221.52 11.9466C221.619 10.9837 221.718 7.70327 221.817 6.83828C221.916 5.77745 222.313 4.71662 222.891 3.85164C224.146 2.12167 226.013 1.15876 227.962 1.25669C229.812 1.45253 231.761 1.53413 232.918 3.08458C234.388 5.09199 233.793 9.25371 234.091 12.0282H236.915C237.989 12.0282 240.434 12.1261 241.408 12.1261H243.159C245.686 12.1261 248.709 12.6973 250.08 15.2107H250.097ZM243.572 70.8798C237.824 80.8842 221.355 81.4717 213.558 73.1809C210.254 69.6231 209.065 65.7715 208.388 61.0385C207.017 51.6053 206.34 43.3308 211.51 34.7463C214.334 29.9317 222.429 27.2389 229.548 27.5326C250.493 28.316 251.468 56.9911 243.589 70.8798H243.572ZM237.13 54.9836C237.031 50.5445 236.849 43.5103 232.852 40.8175C229.333 38.5 222.032 39.5771 220.182 43.6083C217.737 48.8145 217.936 54.1187 219.108 59.6023C219.686 62.3931 220.76 65.8531 223.205 67.5014C224.279 68.1706 228.078 68.4643 229.152 68.2685C234.999 67.4035 237.246 60.1899 237.146 54.9836H237.13ZM275.139 34.5667C275.734 34.5667 276.312 34.7626 276.989 34.7626C277.666 34.8605 278.459 34.9584 279.219 35.0564C280.689 35.3338 282.242 35.9213 282.936 37.3575C283.415 38.1409 283.613 38.9896 283.613 39.8546C283.613 40.8175 283.613 41.6825 283.316 42.6454C283.117 43.592 282.82 44.9466 281.961 45.6157C281.168 46.2032 280.293 46.6765 279.335 46.8724C277.286 47.1498 273.768 46.8724 271.736 46.9703C271.538 46.9703 271.439 47.0682 271.439 47.0682C271.439 47.0682 271.34 47.0682 271.34 47.4599C271.241 50.6424 271.34 55.4569 271.34 58.721C271.439 61.9851 271.439 65.3634 271.34 68.5459V69.9005C271.34 73.2625 271.34 78.175 269.011 80.4925C268.218 81.3575 267.16 81.8471 265.889 81.8471C265.889 81.8471 265.789 81.7492 265.69 81.7492C259.364 81.5533 258.687 74.0459 258.687 69.9985V12.7953C258.687 12.5994 258.587 7.80119 260.735 5.67953C261.61 4.81455 263.659 4.32493 265.112 4.32493C266.566 4.32493 267.838 4.89615 268.713 5.77745C270.481 7.60534 270.563 9.62908 270.762 11.7344C270.861 12.1261 270.861 12.5178 270.861 12.8932C271.158 15.0148 271.158 17.4139 271.257 19.7314C271.257 21.184 271.356 22.4243 271.356 23.8768C271.257 24.6602 271.356 25.3294 271.356 25.9985V32.2492C271.356 32.9347 271.356 33.7018 271.554 34.3709C271.554 34.4688 273.487 34.4688 273.603 34.4688C274.082 34.5667 274.478 34.6647 274.957 34.5667H275.155H275.139Z" fill="#C9E3EA"/>
<path d="M377.834 48.0475C377.834 52.6662 372.185 53.2374 368.187 53.2374L312.536 53.1395C310.488 53.1395 305.037 52.5682 305.037 48.1291C305.037 44.0816 308.44 42.4496 312.338 42.2537C320.812 41.862 329.683 42.1558 369.542 42.1558C374.035 42.1558 377.834 43.2166 377.834 48.0312V48.0475ZM317.905 4.60242C322.381 4.60242 323.852 7.88283 324.232 12.2077L324.81 21.0698C325.008 23.7626 325.388 24.7255 328.708 24.7255H358.441C361.745 24.7255 369.063 24.9214 369.162 30.0134C369.261 35.0237 363.314 35.1217 358.144 35.1217H324.81C322.084 35.1217 318.764 35.1217 316.138 33.8813C313.313 32.5267 311.76 29.1484 311.76 25.8843C311.76 24.5297 311.661 15.3902 311.661 12.1098C311.661 8.82942 313.693 4.60242 317.905 4.60242ZM367.989 70.2923C370.814 70.2923 374.315 72.0385 374.035 76.1676C373.737 80.0192 370.219 81.2759 367.592 81.2759H320.416C314.469 81.2759 312.421 78.5667 312.421 75.6943V64.6127C312.421 60.957 315.345 58.2641 318.07 58.2641C322.348 58.2641 324.116 61.1528 324.314 64.1394L324.711 70.1127L367.989 70.3086V70.2923Z" fill="#C9E3EA"/>
<path d="M16.0774 129.193H37.5184C37.5184 129.193 55.5565 128.997 64.3278 129.193H64.8234C67.4498 129.291 70.0927 129.095 72.6201 130.058C74.4701 130.727 75.6264 132.359 75.6264 134.285C75.6264 135.819 74.9492 137.271 73.6938 138.332C71.6455 140.16 68.3253 140.079 65.6988 139.866H9.76741C9.56919 139.866 4.99356 139.964 3.1435 137.941C2.36713 137.174 1.9707 135.917 1.9707 134.677C1.9707 133.322 2.46622 132.163 3.22607 131.412C4.87791 129.764 6.74449 129.666 8.69367 129.487C9.0736 129.487 9.47007 129.389 9.86652 129.389C11.8157 129.193 16.1105 129.193 16.1105 129.193H16.0774ZM71.6289 170.304C72.4053 172.622 71.5298 174.254 69.1016 175.217C67.5489 175.788 65.8805 175.886 64.526 175.886H19.216C16.5895 175.886 13.7483 175.788 10.9237 175.69C8.19813 175.592 6.24894 173.568 5.9516 170.679L5.67082 163.939C5.57171 162.585 5.47259 160.283 6.6454 159.027C8.39636 157.117 11.8983 156.823 14.7229 156.823C18.4231 156.823 30.8119 156.921 60.5286 156.921V153.461H12.5755C11.3201 153.461 10.2464 153.461 9.27183 153.266C8.09902 152.988 7.12444 152.988 6.54629 151.927C5.67082 150.573 5.37346 149.332 5.8525 147.782C6.54627 145.774 9.45353 145.481 10.9237 145.285C11.8983 145.089 12.8729 144.991 13.9466 144.991C19.7941 144.991 26.6162 145.089 61.5031 145.089C68.0444 145.089 71.7446 147.015 71.7446 151.454V158.292C71.7446 160.022 70.9682 161.948 68.9199 163.107C67.2516 164.07 65.5006 163.972 63.8488 163.972H17.6467V167.448H67.2516C69.2999 167.644 71.0673 168.313 71.6455 170.337L71.6289 170.304ZM69.0851 118.405C71.2325 120.233 70.5552 124.476 67.3341 125.047C63.2376 125.912 58.3647 124.672 54.6645 123.024C51.1461 121.49 48.2388 120.135 45.3151 118.503C43.5641 117.54 38.5921 115.027 38.5921 115.027C38.5921 115.027 32.6454 117.622 30.5971 118.585C27.1778 120.315 24.6505 121.375 21.2477 122.909C18.7204 123.97 15.9948 125.7 13.0546 125.504C10.7255 125.407 8.099 124.444 7.60345 121.947C7.50434 121.277 7.60349 120.494 7.80171 119.743C8.29726 117.915 9.65176 116.757 11.4027 115.696L18.1257 112.432C20.3557 111.273 21.7267 110.685 24.0723 109.641C26.2197 108.482 29.54 106.85 32.0673 105.985V105.887H21.7267C19.6785 105.887 18.4066 105.985 16.4739 105.789C15.0038 105.593 13.1537 105.789 11.7991 105.104C11.0063 104.728 10.4281 104.043 10.0317 103.276C9.25529 102.019 9.0571 100.191 9.75088 98.8368C10.7255 96.8131 13.451 95.7522 15.8957 95.7522H18.1257C20.174 95.8502 20.6696 95.7522 22.7013 95.7522H56.432C60.7103 95.7522 68.028 94.6914 69.3825 100.191C70.9517 106.442 60.4129 106.263 56.3164 106.067C52.3354 105.871 46.2897 106.067 46.2897 106.067V106.165C47.0825 106.54 47.9415 107.03 48.817 107.323C49.5933 107.699 50.2871 108.091 51.047 108.482C52.3189 109.151 53.5743 109.641 54.8627 110.31C57.2909 111.469 59.7357 112.807 62.1639 114.064C64.5921 115.125 67.0368 116.757 69.0851 118.389V118.405Z" fill="#C9E3EA"/>
<path d="M125.38 154.049V123.416C125.38 121.392 125.38 119.27 125.182 117.165C125.083 116.496 124.984 115.043 124.306 114.749C123.629 114.358 122.754 114.554 121.977 114.472C121.102 114.374 120.21 114.57 119.351 114.472H114.775C112.628 114.57 110.282 114.374 108.151 114.472C107.177 114.57 106.301 114.472 105.327 114.472C103.857 114.472 102.205 114.472 100.933 113.607C99.0828 112.367 98.6038 110.229 98.6038 108.205C98.5047 106.965 98.802 105.708 99.3801 104.549C99.6775 103.88 100.074 103.309 100.652 102.917C101.329 102.248 102.799 101.758 103.675 101.562C106.4 100.893 109.522 100.991 112.347 100.991H129.312C130.963 101.187 133.012 101.383 134.564 101.954C135.539 102.346 136.712 103.015 137.29 103.88C138.463 105.708 138.463 107.438 138.661 109.559C138.942 113.117 138.859 116.692 138.859 120.249V151.829C138.859 152.123 139.057 160.104 138.859 164.151C138.661 166.746 138.083 169.945 134.664 171.186C133.491 171.675 132.334 171.855 131.36 171.855C129.708 171.855 127.759 171.186 127.082 169.733C126.107 167.823 125.529 165.408 125.529 162.895V158.668C125.43 157.134 125.43 155.583 125.43 154.049H125.38ZM159.094 140.65C158.417 140.65 155.576 140.454 154.519 140.454C153.263 140.454 152.19 140.454 151.116 140.177C150.141 140.177 149.167 139.883 148.093 139.491C147.416 139.116 146.623 138.528 146.045 137.859C145.367 136.994 144.872 136.227 144.872 135.264C144.575 133.73 145.153 131.315 146.045 130.254C146.441 129.585 146.722 129.291 147.218 128.818C148.01 128.23 148.985 127.855 149.745 127.659C151.116 127.463 152.371 127.463 153.561 127.463H159.309V120.527C159.309 118.993 159.111 117.834 159.111 116.381C159.111 113.297 159.111 110.327 159.309 107.242C159.309 105.316 159.59 103.194 160.284 101.367C160.564 100.6 161.06 99.8325 161.638 99.1633C162.514 98.3799 163.587 98.0046 164.562 98.0046H164.76C170.112 98.0046 171.483 102.232 171.78 106.475C172.16 109.853 172.061 113.509 172.061 116.969V159.255C172.061 163.58 172.639 168.411 171.186 172.442C170.905 173.226 170.509 173.895 169.93 174.466C169.534 174.76 168.675 175.249 167.882 175.429C167.106 175.625 166.329 175.821 165.735 175.821C159.689 175.821 159.111 167.921 159.111 163.89V160.414C159.012 155.795 159.309 148.484 159.111 143.653V140.683L159.094 140.65Z" fill="#C9E3EA"/>
<path d="M206.717 174.743C205.445 173.78 205.048 171.659 205.048 170.223C204.949 167.921 204.669 165.604 204.669 163.384C204.669 160.104 204.569 157.607 205.164 154.424C205.544 152.417 206.337 151.242 208.286 150.491C210.037 149.806 211.887 149.43 213.737 149.43H231.379L231.478 143.637C225.531 143.637 210.913 143.441 205.461 143.065C203.413 142.869 202.439 142.788 200.787 141.237C199.911 140.454 199.531 139.116 199.531 137.761C199.531 136.521 200.027 135.264 200.787 134.497C202.736 132.473 207.51 132.571 207.708 132.571H263.458C265.39 132.571 267.356 132.571 269.206 132.669C270.957 132.767 272.906 133.061 274.277 134.301C275.632 135.362 275.632 136.619 275.632 138.153C275.632 140.079 274.459 141.613 272.51 142.298C269.883 143.261 266.662 143.359 263.937 143.457C257.494 143.653 251.251 143.849 244.742 143.849L244.643 149.43H259.642C262.087 149.528 264.812 149.626 267.158 150.671C269.685 151.731 270.379 153.657 270.561 156.171C270.759 160.593 270.957 167.726 269.685 172.344C269.289 173.797 268.991 174.939 267.439 175.429C266.084 175.918 264.432 176 263.061 176L212.283 175.804C210.632 175.706 208.484 175.902 207.014 174.939C206.915 174.939 206.816 174.841 206.733 174.743H206.717ZM204.669 112.154C204.669 99.2449 218.99 96.2582 237.805 96.2582C256.619 96.2582 270.94 97.7924 270.94 112.154C270.94 126.516 256.619 128.05 237.805 128.05C218.99 128.05 204.669 126.321 204.669 112.154ZM216.661 165.588C217.156 166.077 219.386 165.783 219.386 165.783H249.896C249.896 165.783 254.472 166.159 256.9 165.881C258.172 165.783 258.271 165.098 258.37 163.955C258.469 162.895 258.667 161.361 257.874 160.398C256.999 159.337 255.05 159.533 253.778 159.631H226.688C223.863 159.435 221.121 159.533 218.313 159.631C217.239 159.631 216.76 159.435 216.463 160.577C216.264 161.442 216.264 162.323 216.264 163.091C216.364 163.286 216.264 163.58 216.264 163.955C216.264 164.527 216.264 165.31 216.661 165.588ZM217.916 112.154C217.916 116.496 225.531 117.638 237.788 117.442C247.352 117.442 257.676 117.834 257.676 112.154C257.676 107.242 247.352 107.046 237.788 107.046C228.224 107.046 217.916 107.242 217.916 112.154Z" fill="#C9E3EA"/>
<path d="M368.048 127.202C368.906 123.954 372.26 122.012 375.547 122.877C378.851 123.726 380.882 127.055 380.023 130.303C379.148 133.567 375.729 135.46 372.425 134.611C369.138 133.763 367.172 130.466 368.048 127.202ZM333.177 118.144C334.036 114.896 337.373 112.954 340.676 113.819C343.964 114.668 346.012 117.997 345.153 121.245C344.294 124.509 340.858 126.402 337.554 125.553C334.251 124.688 332.302 121.408 333.177 118.144Z" fill="#C9E3EA"/>
<path d="M310.728 138.234C313.157 138.577 315.353 141.335 317.319 142.625C319.913 144.599 322.869 146.362 325.694 147.88C328.651 149.642 331.624 150.915 334.631 152.188C337.918 153.445 341.354 154.522 344.938 155.453C352.206 157.329 359.772 158.39 367.271 158.651C372.061 158.798 376.901 158.358 381.972 157.884C384.83 157.427 389.571 155.077 388.943 159.696C388.745 161.622 387.556 163.809 386.3 165.082C383.575 167.367 379.643 168.134 376.34 168.77C372.26 169.7 368.146 170.027 363.967 170.239C359.805 170.353 355.89 170.337 351.777 169.864C347.845 169.537 344.393 168.852 341.469 168.085C337.802 167.138 334.052 166.045 330.881 164.739C327.495 163.466 324.488 161.883 321.647 160.039C318.608 158.243 315.965 156.073 313.355 153.706C310.927 151.095 306.764 147.031 306.45 143.261C306.186 141.205 307.573 138.675 309.44 138.071C309.935 138.104 310.233 138.071 310.712 138.202L310.728 138.234Z" fill="#C9E3EA"/>
</svg>
