<svg width="117" height="116" viewBox="0 0 117 116" fill="none" xmlns="http://www.w3.org/2000/svg">
<path d="M92.6858 58.011V100.392C92.6858 106.409 87.7662 111.332 81.7534 111.332H14.9348C8.922 111.332 4.00244 106.409 4.00244 100.392V15.6078C4.00244 9.59082 8.922 4.66785 14.9348 4.66785H70.5149" stroke="#4CC5E4" stroke-width="8" stroke-linecap="round" stroke-linejoin="round"/>
<path d="M37.9365 26.1538H58.7517" stroke="#4CC5E4" stroke-width="8" stroke-linecap="round" stroke-linejoin="round"/>
<path d="M28.8845 52.1909H67.8037" stroke="#4CC5E4" stroke-width="8" stroke-linecap="round" stroke-linejoin="round"/>
<path d="M28.8845 69.301H67.8037" stroke="#33DF98" stroke-width="8" stroke-linecap="round" stroke-linejoin="round"/>
<path d="M28.8845 86.4111H67.8037" stroke="#33DF98" stroke-width="8" stroke-linecap="round" stroke-linejoin="round"/>
<path d="M106.592 39.085L105.149 30.6393C105.149 30.6393 110.833 24.9943 111.096 24.7536C114.048 21.8655 113.479 19.0211 110.003 18.0146L100.601 16.6581L96.5121 8.36561C94.6098 5.25866 91.8768 5.25866 89.9964 8.36561L85.9077 16.6581L76.5059 18.0146C73.0294 19.0211 72.4609 21.8655 75.4126 24.7536C75.675 25.0162 81.3598 30.6393 81.3598 30.6393L79.9168 39.085C79.3483 43.3297 81.972 45.1238 85.9077 43.0671C86.2575 42.8702 93.2542 39.2819 93.2542 39.2819C93.2542 39.2819 100.251 42.8702 100.601 43.0671C104.536 45.1457 107.16 43.3297 106.592 39.085Z" stroke="#33DF98" stroke-width="8" stroke-linecap="round" stroke-linejoin="round"/>
</svg>
