<svg width="121" height="115" viewBox="0 0 121 115" fill="none" xmlns="http://www.w3.org/2000/svg">
<path d="M41.669 4H79.2507C81.2951 4 82.9697 5.6529 82.9697 7.71902V33.4477C82.9697 35.4921 81.3168 37.1667 79.2507 37.1667H41.6472C39.6029 37.1667 37.9282 35.5138 37.9282 33.4477V7.71902C37.9282 5.67465 39.5811 4 41.6472 4H41.669Z" stroke="#33DF98" stroke-width="8" stroke-linecap="round" stroke-linejoin="round"/>
<path d="M49.8245 48.9543H71.1164" stroke="#33DF98" stroke-width="8" stroke-linecap="round" stroke-linejoin="round"/>
<path d="M7.71902 65.1357H45.3225C47.3669 65.1357 49.0415 66.7886 49.0415 68.8548V94.5834C49.0415 96.6278 47.3886 98.3025 45.3225 98.3025H7.71902C5.67465 98.3025 4 96.6496 4 94.5834V68.8548C4 66.8104 5.6529 65.1357 7.71902 65.1357Z" stroke="#4CC5E4" stroke-width="8" stroke-linecap="round" stroke-linejoin="round"/>
<path d="M15.875 110.09H37.1452" stroke="#4CC5E4" stroke-width="8" stroke-linecap="round" stroke-linejoin="round"/>
<path d="M75.6404 65.1357H113.222C115.266 65.1357 116.941 66.7886 116.941 68.8548V94.5834C116.941 96.6278 115.288 98.3025 113.222 98.3025H75.6404C73.596 98.3025 71.9214 96.6496 71.9214 94.5834V68.8765C71.9214 66.8321 73.5743 65.1575 75.6404 65.1575V65.1357Z" stroke="#4CC5E4" stroke-width="8" stroke-linecap="round" stroke-linejoin="round"/>
<path d="M83.7959 110.09H105.066" stroke="#4CC5E4" stroke-width="8" stroke-linecap="round" stroke-linejoin="round"/>
</svg>
