<svg width="102" height="100" viewBox="0 0 102 100" fill="none" xmlns="http://www.w3.org/2000/svg">
<path d="M62.1311 76.0486L65.8282 89.4801C66.6935 92.6069 64.7466 95.1634 61.5018 95.1634H39.9485C36.7037 95.1634 34.7568 92.6069 35.6221 89.4801L39.3192 76.0486" stroke="#4CC5E4" stroke-width="8" stroke-linecap="round" stroke-linejoin="round"/>
<path d="M14.5407 4H86.9291C92.7501 4 97.4698 8.7197 97.4698 14.5407V64.8448C97.4698 70.6658 92.7501 75.3855 86.9291 75.3855H14.5407C8.7197 75.3855 4 70.6658 4 64.8448V14.5407C4 8.7197 8.7197 4 14.5407 4Z" stroke="#4CC5E4" stroke-width="8" stroke-linecap="round" stroke-linejoin="round"/>
<path d="M59.4368 53.3796V62.76" stroke="#33DF98" stroke-width="8" stroke-linecap="round" stroke-linejoin="round"/>
<path d="M70.5869 43.134V62.7601" stroke="#33DF98" stroke-width="8" stroke-linecap="round" stroke-linejoin="round"/>
<path d="M81.7178 49.1125V62.7604" stroke="#33DF98" stroke-width="8" stroke-linecap="round" stroke-linejoin="round"/>
<path d="M42.3871 23.5474H18.7886V37.3132H42.3871V23.5474Z" stroke="#33DF98" stroke-width="8" stroke-linecap="round" stroke-linejoin="round"/>
</svg>
