<svg width="95" height="140" viewBox="0 0 95 140" fill="none" xmlns="http://www.w3.org/2000/svg">
<path d="M76.6078 75.7098L73.4513 57.369C73.4513 57.369 85.8451 45.134 86.4021 44.602C92.8543 38.3342 91.6242 32.1589 84.0348 29.9848L63.5409 27.0244L54.6285 9.03044C50.4972 2.32319 44.5324 2.32319 40.4243 9.03044L31.5119 27.0244L11.018 29.9848C3.42857 32.1589 2.19847 38.3342 8.65068 44.602C9.2077 45.134 21.6015 57.369 21.6015 57.369L18.445 75.7098C17.1917 84.915 22.9245 88.8237 31.4887 84.3368C32.2546 83.9204 47.5032 76.1261 47.5032 76.1261C47.5032 76.1261 62.7518 83.9204 63.5177 84.3368C72.0819 88.8237 77.8147 84.9381 76.5846 75.7098H76.6078Z" stroke="#33DF98" stroke-width="8" stroke-linecap="round" stroke-linejoin="round"/>
<path d="M27.2647 96.7567H67.8115C71.9428 96.7567 75.2849 100.087 75.2849 104.204V127.587C75.2849 131.704 71.9428 135.034 67.8115 135.034H27.2647C23.1334 135.034 19.7913 131.704 19.7913 127.587V104.204C19.7913 100.087 23.1334 96.7567 27.2647 96.7567Z" stroke="#4CC5E4" stroke-width="8" stroke-linecap="round" stroke-linejoin="round"/>
<path d="M38.4285 115.907H56.6246" stroke="#4CC5E4" stroke-width="8" stroke-linecap="round" stroke-linejoin="round"/>
</svg>
