<svg width="92" height="127" viewBox="0 0 92 127" fill="none" xmlns="http://www.w3.org/2000/svg">
<path d="M57.9015 16.1734C57.9015 22.8944 52.4491 28.3469 45.7281 28.3469C39.0071 28.3469 33.5547 22.8944 33.5547 16.1734C33.5547 9.45245 39.0071 4 45.7281 4C52.4491 4 57.9015 9.45245 57.9015 16.1734Z" stroke="#33DF98" stroke-width="8" stroke-linecap="round" stroke-linejoin="round"/>
<path d="M63.5986 58.7916V48.7101C63.5986 42.6345 58.6802 37.7162 52.6047 37.7162H38.8289C32.7533 37.7162 27.835 42.6345 27.835 48.7101V58.7916" stroke="#33DF98" stroke-width="8" stroke-linecap="round" stroke-linejoin="round"/>
<path d="M21.8709 83.6724C28.5941 83.6724 34.0444 78.2222 34.0444 71.499C34.0444 64.7758 28.5941 59.3256 21.8709 59.3256C15.1477 59.3256 9.69751 64.7758 9.69751 71.499C9.69751 78.2222 15.1477 83.6724 21.8709 83.6724Z" stroke="#4CC5E4" stroke-width="8" stroke-linecap="round" stroke-linejoin="round"/>
<path d="M39.7636 104.013C39.7636 97.9379 34.8453 93.0195 28.7697 93.0195H14.9939C8.91833 93.0195 4 97.9379 4 104.013V122.04H39.7859V104.013H39.7636Z" stroke="#4CC5E4" stroke-width="8" stroke-linecap="round" stroke-linejoin="round"/>
<path d="M69.5628 83.6725C76.286 83.6725 81.7363 78.2223 81.7363 71.4991C81.7363 64.7759 76.286 59.3257 69.5628 59.3257C62.8396 59.3257 57.3894 64.7759 57.3894 71.4991C57.3894 78.2223 62.8396 83.6725 69.5628 83.6725Z" stroke="#4CC5E4" stroke-width="8" stroke-linecap="round" stroke-linejoin="round"/>
<path d="M87.4557 104.014C87.4557 97.938 82.5374 93.0197 76.4618 93.0197H62.6861C56.6105 93.0197 51.6921 97.938 51.6921 104.014V122.04H87.478V104.014H87.4557Z" stroke="#4CC5E4" stroke-width="8" stroke-linecap="round" stroke-linejoin="round"/>
</svg>
