<svg width="78" height="127" viewBox="0 0 78 127" fill="none" xmlns="http://www.w3.org/2000/svg">
<path d="M73.7535 38.738C73.7535 19.5597 58.317 4 39.246 4C20.175 4 4.73853 19.5597 4.73853 38.738C4.73853 52.1869 12.3469 63.8467 23.4501 69.6162V75.3054C23.4501 81.7987 28.6821 87.0858 35.1523 87.0858H43.3398C49.81 87.0858 55.042 81.8188 55.042 75.3054V69.6162C66.1651 63.8467 73.7535 52.1869 73.7535 38.738Z" stroke="#4CC5E4" stroke-width="8" stroke-linecap="round" stroke-linejoin="round"/>
<path d="M29.2612 97.2578V103.289C29.2612 106.626 31.9372 109.32 35.2521 109.32H43.24C46.5549 109.32 49.2309 106.626 49.2309 103.289V97.2578" stroke="#4CC5E4" stroke-width="8" stroke-linecap="round" stroke-linejoin="round"/>
<path d="M39.2461 66.1239V62.9076" stroke="#33DF98" stroke-width="8" stroke-linecap="round" stroke-linejoin="round"/>
<path d="M39.2461 51.1239V23.9076" stroke="#33DF98" stroke-width="8" stroke-linecap="round" stroke-linejoin="round"/>
<path d="M62.7704 104.415C68.7812 106.324 72.5156 108.978 72.5156 111.893C72.5156 114.808 68.7812 117.461 62.7704 119.371C56.7595 121.281 48.4322 122.467 39.2462 122.467C30.0602 122.467 21.7528 121.281 15.722 119.371C9.71113 117.461 5.97681 114.808 5.97681 111.893C5.97681 108.978 9.71113 106.324 15.722 104.415" stroke="#33DF98" stroke-width="8" stroke-linecap="round" stroke-linejoin="round"/>
</svg>
