<svg width="136" height="40" viewBox="0 0 136 40" fill="none" xmlns="http://www.w3.org/2000/svg">
<g clip-path="url(#clip0_50_2158)">
<path d="M121.597 40C113.655 40 107.195 33.4796 107.195 25.467C107.195 17.4543 113.657 10.9339 121.597 10.9339C129.538 10.9339 136 17.4526 136 25.467C136 33.4813 129.538 40 121.597 40ZM121.597 15.9126C116.376 15.9126 112.129 20.1981 112.129 25.467C112.129 30.7359 116.376 35.0213 121.597 35.0213C126.819 35.0213 131.066 30.7359 131.066 25.467C131.066 20.1981 126.819 15.9126 121.597 15.9126Z" fill="#BDBEBD"/>
<path d="M98.7432 1.60492H97.7601C96.1509 1.60492 94.8464 2.92123 94.8464 4.54499V5.53696C94.8464 7.16072 96.1509 8.47704 97.7601 8.47704H98.7432C100.352 8.47704 101.657 7.16072 101.657 5.53696V4.54499C101.657 2.92123 100.352 1.60492 98.7432 1.60492Z" fill="#BDBEBD"/>
<path d="M96.0038 13.5223H94.3473C92.9853 13.5223 91.8804 14.6372 91.8804 16.0116C91.8804 17.386 92.9853 18.5009 94.3473 18.5009H96.0038C96.3169 18.5009 96.5707 18.757 96.5707 19.0729V37.2221C96.5707 38.5966 97.6756 39.7115 99.0376 39.7115C100.4 39.7115 101.505 38.5966 101.505 37.2221V19.0729C101.505 16.0116 99.0376 13.5223 96.0038 13.5223Z" fill="#BDBEBD"/>
<path d="M85.7418 39.4083C87.3302 39.1481 88.4089 37.6379 88.151 36.0351C87.8932 34.4323 86.3965 33.3439 84.8082 33.6041C83.2198 33.8643 82.1411 35.3745 82.399 36.9773C82.6568 38.58 84.1535 39.6684 85.7418 39.4083Z" fill="#BDBEBD"/>
<path d="M25.2772 0.0939045C23.9151 0.0939045 22.8102 1.20881 22.8102 2.58323V14.4169C22.8102 17.5124 20.3145 20.0307 17.2468 20.0307H10.4973C7.42969 20.0307 4.93395 17.5124 4.93395 14.4169V13.5189H18.6935C20.0556 13.5189 21.1605 12.404 21.1605 11.0295C21.1605 9.65511 20.0556 8.54021 18.6935 8.54021H4.93395V2.58323C4.93395 1.20881 3.82906 0.0939045 2.46697 0.0939045C1.10489 0.0939045 0 1.20881 0 2.58323V14.4169C0 20.2578 4.70891 25.0094 10.4973 25.0094H17.2468C23.0352 25.0094 27.7442 20.2578 27.7442 14.4169V2.58323C27.7442 1.20881 26.6393 0.0939045 25.2772 0.0939045Z" fill="#238FAB"/>
<path d="M51.7218 18.5129H73.0007C74.3628 18.5129 75.4677 17.398 75.4677 16.0236C75.4677 14.6491 74.3628 13.5342 73.0007 13.5342H51.7218C50.6067 13.5342 49.6524 12.7284 49.5408 11.733H72.0176C73.3797 11.733 74.4846 10.6181 74.4846 9.24364V7.03773C74.4846 3.15691 71.3561 0 67.5101 0H52.1549C50.7929 0 49.688 1.11491 49.688 2.48933C49.688 3.86375 50.7929 4.97866 52.1549 4.97866H67.5101C68.5388 4.97866 69.3933 5.75209 69.5304 6.7526H47.0619C45.6999 6.7526 44.595 7.86751 44.595 9.24193V11.5366C44.595 15.3833 47.7912 18.5112 51.7218 18.5112V18.5129Z" fill="#238FAB"/>
<path d="M74.7098 19.9898H46.1247C44.7626 19.9898 43.6577 21.1047 43.6577 22.4791C43.6577 23.8535 44.7626 24.9684 46.1247 24.9684H74.7098C76.0719 24.9684 77.1768 23.8535 77.1768 22.4791C77.1768 21.1047 76.0719 19.9898 74.7098 19.9898Z" fill="#238FAB"/>
<path d="M73.989 34.7533H54.7236C52.216 34.7533 50.1771 32.6942 50.1771 30.1639V28.8697C50.1771 27.4953 49.0722 26.3804 47.7101 26.3804C46.3481 26.3804 45.2432 27.4953 45.2432 28.8697V30.1639C45.2432 35.4396 49.4969 39.7319 54.7253 39.7319H73.9907C75.3528 39.7319 76.4577 38.617 76.4577 37.2426C76.4577 35.8682 75.3528 34.7533 73.9907 34.7533H73.989Z" fill="#238FAB"/>
<path d="M39.8725 0.0870746C39.4986 0.0290244 36.1585 -0.431962 33.8167 1.58784C32.8878 2.3903 31.7795 3.88424 31.7795 6.44357V37.2358C31.7795 38.6102 32.8844 39.7251 34.2465 39.7251C35.6086 39.7251 36.7135 38.6102 36.7135 37.2358V6.44357C36.7135 5.91258 36.8167 5.55404 37.0197 5.37476C37.4444 5.00256 38.5138 4.92231 39.1246 5.00597C40.463 5.20915 41.7185 4.28205 41.9283 2.92983C42.1398 1.57077 41.2194 0.29708 39.8742 0.0836599L39.8725 0.0870746Z" fill="#238FAB"/>
</g>
<defs>
<clipPath id="clip0_50_2158">
<rect width="136" height="40" fill="white"/>
</clipPath>
</defs>
</svg>
