<svg width="334" height="32" viewBox="0 0 334 32" fill="none" xmlns="http://www.w3.org/2000/svg">
<g clip-path="url(#clip0_50_1988)">
<path d="M15.1477 17.558C9.99362 21.3482 1.2131 18.3847 1.2131 11.8219C1.2131 9.83148 1.85495 8.22258 2.914 6.97615H2.23364C0.982032 6.97615 0 6.07949 0 4.98569C0 3.89189 0.982032 2.96343 2.23364 2.96343H7.22724V1.76153C7.22724 0.788553 8.21569 0 9.42237 0C10.6291 0 11.6175 0.782194 11.6175 1.76153V2.96343H16.8807C18.1323 2.96343 19.1143 3.86645 19.1143 4.98569C19.1143 6.10493 18.1323 6.97615 16.8807 6.97615H16.425C17.484 8.21622 18.1708 9.83148 18.1708 11.8219C18.1708 14.1431 17.0668 16.1335 15.1413 17.558H15.1477ZM3.22209 31.1797C2.72787 30.8045 2.57382 29.8696 2.57382 29.3037C2.53531 28.4006 2.4262 27.504 2.4262 26.6391C2.4262 25.3609 2.38769 24.089 2.61875 22.849C2.76638 22.0604 3.07447 21.6089 3.83185 21.31C4.51221 21.0493 5.23109 20.8967 5.94996 20.8967H23.787C24.7369 20.9348 25.796 20.973 26.7074 21.38C27.6895 21.7933 27.959 22.849 28.0296 23.8219C28.1067 25.5453 28.1837 28.4388 27.6895 30.2385C27.5354 30.7981 27.4199 31.2496 26.8165 31.4404C26.2902 31.6312 25.6484 31.663 25.1156 31.663L5.38513 31.5866C4.74328 31.5485 3.90887 31.6248 3.34404 31.2496C3.30553 31.2496 3.26702 31.2114 3.23493 31.1733L3.22209 31.1797ZM13.4404 11.7774C13.4404 7.3132 5.94354 7.12878 5.94354 11.8156C5.94354 14.5119 8.36974 15.3005 10.4493 14.8871C12.0411 14.5819 13.4404 13.6852 13.4404 11.7711V11.7774ZM7.07962 27.4658C7.27217 27.6566 8.13867 27.5421 8.13867 27.5421H19.9937C19.9937 27.5421 21.7716 27.6948 22.7151 27.5803C23.2093 27.5421 23.2478 27.3196 23.2864 26.868C23.3249 26.4547 23.4019 25.8569 23.0938 25.4817C22.7536 25.0684 21.9962 25.1447 21.502 25.1765H10.9757C9.87809 25.1002 8.81903 25.1383 7.72147 25.1765C7.30426 25.1765 7.11813 25.1002 7.00259 25.5517C6.92557 25.8887 6.92557 26.2321 6.92557 26.531C6.96408 26.6073 6.92557 26.7218 6.92557 26.868C6.92557 27.0906 6.92557 27.3514 7.07962 27.4658ZM27.2273 12.903V16.655C27.1888 17.1765 27.1118 17.7806 26.8037 18.3402C26.6561 18.6455 26.4314 18.9062 26.1618 19.0906C25.7832 19.3514 25.3274 19.4658 24.9102 19.4658C24.5315 19.4658 24.1529 19.3895 23.8512 19.2051C22.8306 18.601 22.6766 17.2146 22.6766 17.1765V4.46423C22.6381 4.27345 22.7151 3.1097 23.0168 2.51192C23.2414 2.02862 23.8127 1.68521 24.5315 1.61526C25.398 1.50079 26.1939 1.72337 26.6111 2.17488C26.9192 2.55008 26.9898 2.92528 27.1054 3.33863C27.2594 3.8283 27.2594 4.43243 27.2209 4.9539V7.54213C27.2209 7.54213 27.1824 8.0318 27.2209 8.74404C27.6381 8.78219 29.6792 8.82035 30.1349 8.93482C31.1169 9.1256 31.4571 9.53259 31.5727 10.0604C31.7267 10.5819 31.7652 11.4467 31.4571 11.9364C30.8538 12.9094 29.5637 12.8776 28.0874 12.9094H27.2209L27.2273 12.903Z" fill="#2888A2"/>
<path d="M49.294 7.53577V22.0922C49.294 22.2448 49.4032 25.2083 49.294 26.779C49.217 27.752 49.0245 28.9221 47.8499 29.4436C47.3942 29.5898 46.9834 29.7043 46.6817 29.7043C46.0784 29.7043 45.6162 29.399 45.3531 28.8776C45.0129 28.1272 44.8653 27.2623 44.8268 26.3275V24.7122C44.8268 24.1145 44.7882 23.5485 44.7882 22.9507V10.9062C44.7882 10.1176 44.8268 9.29094 44.7112 8.54054C44.6727 8.27981 44.6342 7.71383 44.4031 7.60572C44.1785 7.49126 43.8768 7.56757 43.5687 7.52941C43.2671 7.49126 42.7022 7.56757 42.3556 7.52941C41.8293 7.52941 41.2196 7.49126 40.7638 7.19237C40.1605 6.7027 39.9744 6.55008 39.9744 5.72337C39.9744 5.27186 40.0129 4.86486 40.2375 4.41335C40.3145 4.22257 40.4622 4 40.6932 3.81558C40.9179 3.593 41.4121 3.40222 41.7523 3.28776C42.7343 3.09698 42.3235 3.09698 43.5302 3.09698C43.7934 3.09698 45.7639 3.09698 46.1426 3.13513H46.3351C46.7138 3.09698 47.0925 3.09698 47.3557 3.09698H52.0925C52.3172 3.09698 52.5803 3.09698 52.8114 3.13513C53.4147 3.17329 53.7934 3.2496 54.3647 3.47218C54.7048 3.6248 55.1156 3.88553 55.3082 4.22257C55.7318 4.89666 55.6869 5.57075 55.7639 6.3593C55.9115 7.67567 55.8409 9.39905 55.8409 10.7472V13.7107H58.4147V5.41812C58.4147 4.78219 58.3762 4.06359 58.5239 3.42766C58.6009 3.20509 58.6779 2.97615 58.7934 2.74722C59.0951 2.26391 59.3198 2.00318 59.891 1.8124C60.1156 1.73609 60.4623 1.69793 60.6869 1.69793C61.5213 1.69793 62.0155 2.11129 62.4327 2.82353C62.8114 3.45946 62.7729 5.25914 62.7729 5.44992C62.8114 23.682 62.7729 26.8744 62.7729 26.8744C62.7729 28.1145 62.7344 28.6359 62.3557 29.806C62.0926 30.5501 61.6753 31.1161 60.5778 31.1161C60.2697 31.1161 59.7434 31.0397 59.4802 30.8553C58.4597 30.2194 58.4597 27.8919 58.4597 27.1415L58.4212 18.6264L55.8473 18.5501V22.0795C55.8859 22.2321 55.9244 25.1955 55.8473 26.7663C55.7703 28.2353 54.9808 29.6916 53.235 29.6916C52.6638 29.6916 52.33 29.3863 52.0219 28.8649C51.6817 28.1145 51.5341 27.2496 51.5341 26.3148C51.5341 25.7488 51.5341 25.1892 51.4956 24.6995V10.8935C51.4956 10.1049 51.4956 9.27822 51.3865 8.52782C51.3865 8.26709 51.1939 7.47854 50.1734 7.55485C49.8653 7.51669 49.6021 7.55485 49.3069 7.51669L49.294 7.53577ZM67.9976 30.9126C67.4713 31.2496 67.0155 31.3259 66.3673 31.1733C64.8525 30.8362 64.6664 29.1828 64.6664 27.911V5.85056C64.6279 4.72496 64.6664 2.84897 65.3467 2.16852C65.918 1.68521 66.1426 1.6089 66.823 1.6089C67.6959 1.6089 68.4533 2.13036 68.755 2.91892C69.2107 3.9682 69.1722 5.0938 69.2107 6.22575V6.41653C69.3262 10.2003 69.2107 13.9905 69.2107 17.5199V26.5246C69.2107 27.841 69.2107 29.0429 68.7229 30.0922C68.5688 30.4293 68.3442 30.69 68.004 30.9189L67.9976 30.9126Z" fill="#2888A2"/>
<path d="M97.1376 5.92687C97.4778 6.5628 97.3623 7.72655 96.8745 8.36248C95.8924 9.60255 92.0991 9.18919 91.4187 9.22735C91.04 9.2655 90.6613 9.2655 90.2056 9.2655H88.9925C88.6138 9.22735 88.2352 9.22735 87.8179 9.22735L83.3507 9.15104C80.7768 9.15104 79.7884 8.51511 79.6023 7.12878C79.4867 6.37838 79.7114 5.77425 80.1671 5.36725C80.8539 4.76948 81.2326 4.69317 81.9835 4.69317C82.1761 4.69317 82.4007 4.73132 82.5869 4.73132H83.5368C84.2557 4.73132 85.3147 4.69317 86.0336 4.65501C86.0721 4.27981 86.1106 3.00159 86.1491 2.66455C86.1876 2.25119 86.3417 1.83784 86.5663 1.5008C87.0541 0.826711 87.7794 0.451512 88.5368 0.489668C89.2557 0.565979 90.0131 0.597776 90.4624 1.20191C91.0336 1.9841 90.8025 3.60572 90.9181 4.68681H92.0157C92.4329 4.68681 93.3828 4.72496 93.7615 4.72496H94.4418C95.4239 4.72496 96.5985 4.94754 97.1312 5.92687H97.1376ZM94.6023 27.6184C92.3687 31.5167 85.9694 31.7456 82.9399 28.5151C81.6562 27.1288 81.194 25.628 80.9309 23.7838C80.3981 20.1081 80.135 16.8839 82.144 13.539C83.2416 11.663 86.3866 10.6137 89.153 10.7281C97.2917 11.0334 97.6704 22.2067 94.6087 27.6184H94.6023ZM92.0991 21.4245C92.0606 19.6948 91.99 16.9539 90.4367 15.9046C89.0696 15.0016 86.2326 15.4213 85.5137 16.9921C84.5638 19.0207 84.6408 21.0874 85.0965 23.2242C85.3211 24.3116 85.7383 25.6598 86.6883 26.3021C87.1055 26.5628 88.5818 26.6773 88.999 26.601C91.2711 26.2639 92.144 23.4531 92.1055 21.4245H92.0991ZM106.868 13.469C107.099 13.469 107.324 13.5453 107.587 13.5453C107.85 13.5835 108.158 13.6216 108.453 13.6598C109.025 13.7679 109.628 13.9968 109.898 14.5564C110.084 14.8617 110.161 15.1924 110.161 15.5294C110.161 15.9046 110.161 16.2417 110.045 16.6169C109.968 16.9857 109.853 17.5135 109.519 17.7742C109.211 18.0032 108.871 18.1876 108.498 18.2639C107.702 18.372 106.335 18.2639 105.546 18.3021C105.469 18.3021 105.43 18.3402 105.43 18.3402C105.43 18.3402 105.392 18.3402 105.392 18.4928C105.353 19.7329 105.392 21.6089 105.392 22.8808C105.43 24.1526 105.43 25.469 105.392 26.7091V27.2369C105.392 28.5469 105.392 30.4611 104.487 31.3641C104.179 31.7011 103.768 31.8919 103.274 31.8919C103.274 31.8919 103.235 31.8537 103.197 31.8537C100.738 31.7774 100.475 28.8521 100.475 27.275V4.98569C100.475 4.90938 100.437 3.03975 101.271 2.21304C101.611 1.876 102.407 1.68522 102.972 1.68522C103.537 1.68522 104.031 1.90779 104.371 2.25119C105.058 2.96344 105.09 3.75199 105.167 4.57234C105.206 4.72496 105.206 4.87759 105.206 5.02385C105.321 5.85056 105.321 6.78538 105.36 7.6884C105.36 8.25437 105.398 8.73768 105.398 9.30366C105.36 9.6089 105.398 9.86964 105.398 10.1304V12.566C105.398 12.8331 105.398 13.132 105.475 13.3927C105.475 13.4308 106.226 13.4308 106.271 13.4308C106.457 13.469 106.611 13.5072 106.797 13.469H106.874H106.868Z" fill="#2888A2"/>
<path d="M146.772 18.7218C146.772 20.5215 144.577 20.744 143.024 20.744L121.4 20.7059C120.604 20.7059 118.486 20.4833 118.486 18.7536C118.486 17.1765 119.808 16.5405 121.323 16.4642C124.615 16.3116 128.062 16.4261 143.55 16.4261C145.296 16.4261 146.772 16.8394 146.772 18.7154V18.7218ZM123.486 1.79332C125.225 1.79332 125.796 3.07154 125.944 4.75675L126.169 8.20985C126.246 9.25914 126.393 9.63434 127.683 9.63434H139.237C140.52 9.63434 143.364 9.71065 143.402 11.6947C143.441 13.6471 141.13 13.6852 139.121 13.6852H126.169C125.109 13.6852 123.819 13.6852 122.799 13.2019C121.701 12.6741 121.098 11.3577 121.098 10.0858C121.098 9.55803 121.059 5.99682 121.059 4.7186C121.059 3.44038 121.849 1.79332 123.486 1.79332ZM142.947 27.3895C144.044 27.3895 145.405 28.0699 145.296 29.6788C145.18 31.1796 143.813 31.6693 142.792 31.6693H124.461C122.151 31.6693 121.355 30.6137 121.355 29.4944V25.1765C121.355 23.752 122.491 22.7027 123.55 22.7027C125.212 22.7027 125.899 23.8283 125.976 24.992L126.13 27.3195L142.947 27.3959V27.3895Z" fill="#2888A2"/>
<path d="M178.428 13.7679H186.759C186.759 13.7679 193.768 13.6916 197.177 13.7679H197.369C198.39 13.806 199.417 13.7297 200.399 14.1049C201.118 14.3657 201.567 15.0016 201.567 15.752C201.567 16.3498 201.304 16.9157 200.816 17.3291C200.02 18.0413 198.73 18.0095 197.709 17.9269H175.976C175.899 17.9269 174.121 17.965 173.402 17.1765C173.101 16.8776 172.947 16.3879 172.947 15.9046C172.947 15.3768 173.139 14.9253 173.435 14.6327C174.076 13.9905 174.802 13.9523 175.559 13.8823C175.707 13.8823 175.861 13.8442 176.015 13.8442C176.772 13.7679 178.441 13.7679 178.441 13.7679H178.428ZM200.014 29.787C200.315 30.69 199.975 31.3259 199.032 31.7011C198.428 31.9237 197.78 31.9618 197.254 31.9618H179.648C178.627 31.9618 177.523 31.9237 176.426 31.8855C175.367 31.8474 174.609 31.0588 174.494 29.9332L174.385 27.3068C174.346 26.779 174.307 25.8823 174.763 25.3927C175.444 24.6486 176.804 24.5342 177.902 24.5342C179.34 24.5342 184.153 24.5723 195.7 24.5723V23.2242H177.067C176.58 23.2242 176.162 23.2242 175.784 23.1479C175.328 23.0397 174.949 23.0397 174.725 22.6264C174.385 22.0986 174.269 21.6153 174.455 21.0111C174.725 20.2289 175.854 20.1145 176.426 20.0382C176.804 19.9618 177.183 19.9237 177.6 19.9237C179.872 19.9237 182.523 19.9618 196.079 19.9618C198.621 19.9618 200.059 20.7122 200.059 22.442V25.1065C200.059 25.7806 199.757 26.531 198.961 26.9825C198.313 27.3577 197.632 27.3196 196.991 27.3196H179.038V28.6741H198.313C199.109 28.7504 199.795 29.0111 200.02 29.7997L200.014 29.787ZM199.025 9.56438C199.86 10.2766 199.596 11.93 198.345 12.1526C196.753 12.4897 194.86 12.0064 193.422 11.3641C192.055 10.7663 190.925 10.2385 189.789 9.60254C189.109 9.22734 187.177 8.24801 187.177 8.24801C187.177 8.24801 184.866 9.25914 184.07 9.63434C182.741 10.3084 181.759 10.7218 180.437 11.3195C179.455 11.7329 178.396 12.407 177.254 12.3307C176.349 12.2925 175.328 11.9173 175.135 10.9444C175.097 10.6836 175.135 10.3784 175.213 10.0858C175.405 9.3736 175.931 8.92209 176.612 8.50874L179.224 7.23688C180.091 6.78537 180.623 6.55643 181.535 6.14944C182.369 5.69793 183.659 5.062 184.641 4.72496V4.6868H180.623C179.827 4.6868 179.333 4.72496 178.582 4.64864C178.011 4.57233 177.292 4.64864 176.766 4.38155C176.458 4.23529 176.233 3.9682 176.079 3.66931C175.777 3.17965 175.7 2.4674 175.97 1.93958C176.349 1.15103 177.408 0.737674 178.358 0.737674H179.224C180.02 0.77583 180.213 0.737674 181.002 0.737674H194.109C195.771 0.737674 198.614 0.32432 199.141 2.4674C199.75 4.90302 195.655 4.83306 194.064 4.75675C192.517 4.68044 190.168 4.75675 190.168 4.75675V4.79491C190.476 4.94117 190.809 5.13195 191.15 5.24642C191.451 5.39268 191.721 5.54531 192.016 5.69793C192.51 5.95866 192.998 6.14944 193.499 6.41017C194.442 6.86168 195.392 7.38314 196.336 7.87281C197.279 8.28616 198.229 8.92209 199.025 9.55802V9.56438Z" fill="#2888A2"/>
<path d="M220.9 23.4531V11.5167C220.9 10.7281 220.9 9.90143 220.822 9.08108C220.784 8.82035 220.745 8.25437 220.482 8.13991C220.219 7.98728 219.879 8.0636 219.577 8.0318C219.237 7.99364 218.891 8.06996 218.557 8.0318H216.779C215.944 8.06996 215.033 7.99364 214.205 8.0318C213.826 8.06996 213.486 8.0318 213.107 8.0318C212.536 8.0318 211.894 8.0318 211.4 7.69476C210.681 7.21145 210.495 6.37838 210.495 5.58983C210.457 5.10652 210.572 4.61685 210.797 4.16534C210.912 3.90461 211.066 3.68204 211.291 3.52941C211.554 3.26868 212.125 3.0779 212.466 3.00159C213.525 2.74086 214.738 2.77902 215.835 2.77902H222.427C223.069 2.85533 223.865 2.93164 224.468 3.15422C224.847 3.30684 225.303 3.56757 225.527 3.90461C225.983 4.61685 225.983 5.29094 226.06 6.11765C226.169 7.50398 226.137 8.89666 226.137 10.283V22.5882C226.137 22.7027 226.214 25.8124 226.137 27.3895C226.06 28.4006 225.835 29.6471 224.507 30.1304C224.051 30.3211 223.602 30.3911 223.223 30.3911C222.581 30.3911 221.824 30.1304 221.561 29.5644C221.182 28.8204 220.957 27.8792 220.957 26.8998V25.2528C220.919 24.655 220.919 24.0509 220.919 23.4531H220.9ZM234 18.2321C233.737 18.2321 232.633 18.1558 232.222 18.1558C231.734 18.1558 231.317 18.1558 230.9 18.0477C230.521 18.0477 230.142 17.9332 229.725 17.7806C229.462 17.6343 229.154 17.4054 228.929 17.1447C228.666 16.8076 228.473 16.5087 228.473 16.1335C228.358 15.5358 228.582 14.5946 228.929 14.1812C229.083 13.9205 229.192 13.806 229.385 13.6216C229.693 13.3927 230.072 13.2464 230.367 13.1701C230.9 13.0938 231.387 13.0938 231.849 13.0938H234.083V10.3911C234.083 9.79333 234.006 9.34182 234.006 8.77584C234.006 7.57393 234.006 6.41654 234.083 5.21463C234.083 4.46423 234.192 3.63752 234.462 2.92528C234.571 2.62639 234.763 2.32751 234.988 2.06678C235.328 1.76153 235.746 1.61526 236.124 1.61526H236.201C238.281 1.61526 238.814 3.26232 238.929 4.91574C239.077 6.23212 239.038 7.6566 239.038 9.00477V25.4817C239.038 27.1669 239.263 29.0493 238.698 30.62C238.589 30.9253 238.435 31.186 238.21 31.4086C238.056 31.5231 237.722 31.7138 237.414 31.7838C237.113 31.8601 236.811 31.9364 236.58 31.9364C234.231 31.9364 234.006 28.8585 234.006 27.2878V25.9332C233.968 24.1335 234.083 21.2846 234.006 19.4022V18.2448L234 18.2321Z" fill="#2888A2"/>
<path d="M252.504 31.5167C252.01 31.1415 251.856 30.3148 251.856 29.7552C251.817 28.8585 251.708 27.9555 251.708 27.0906C251.708 25.8124 251.67 24.8394 251.901 23.5994C252.048 22.8172 252.357 22.3593 253.114 22.0668C253.794 21.7997 254.513 21.6534 255.232 21.6534H262.087L262.126 19.3959C259.815 19.3959 254.135 19.3196 252.016 19.1733C251.221 19.097 250.842 19.0652 250.2 18.461C249.86 18.1558 249.712 17.6343 249.712 17.1065C249.712 16.6232 249.905 16.1335 250.2 15.8347C250.957 15.0461 252.812 15.0843 252.889 15.0843H274.552C275.303 15.0843 276.067 15.0843 276.785 15.1224C277.466 15.1606 278.223 15.275 278.756 15.7583C279.282 16.1717 279.282 16.6614 279.282 17.2591C279.282 18.0095 278.827 18.6073 278.069 18.8744C277.049 19.2496 275.797 19.2878 274.738 19.3259C272.235 19.4022 269.809 19.4785 267.28 19.4785L267.241 21.6534H273.069C274.019 21.6916 275.078 21.7297 275.99 22.1367C276.972 22.5501 277.241 23.3005 277.312 24.2798C277.389 26.0032 277.466 28.7822 276.972 30.5819C276.818 31.1479 276.702 31.593 276.099 31.7838C275.572 31.9746 274.93 32.0064 274.398 32.0064L254.667 31.93C254.025 31.8919 253.191 31.9682 252.62 31.593C252.581 31.593 252.543 31.5548 252.511 31.5167H252.504ZM251.708 7.12877C251.708 2.09857 257.273 0.934814 264.584 0.934814C271.895 0.934814 277.459 1.53259 277.459 7.12877C277.459 12.725 271.895 13.3227 264.584 13.3227C257.273 13.3227 251.708 12.6486 251.708 7.12877ZM256.368 27.9491C256.561 28.1399 257.427 28.0254 257.427 28.0254H269.282C269.282 28.0254 271.06 28.1717 272.004 28.0636C272.498 28.0254 272.536 27.7583 272.575 27.3132C272.613 26.8998 272.69 26.3021 272.382 25.9269C272.042 25.5135 271.285 25.5898 270.791 25.628H260.264C259.167 25.5517 258.101 25.5898 257.01 25.628C256.593 25.628 256.407 25.5517 256.291 25.9968C256.214 26.3339 256.214 26.6773 256.214 26.9761C256.253 27.0525 256.214 27.1669 256.214 27.3132C256.214 27.5358 256.214 27.841 256.368 27.9491ZM256.856 7.12877C256.856 8.82035 259.815 9.2655 264.577 9.18919C268.294 9.18919 272.305 9.34181 272.305 7.12877C272.305 5.21462 268.294 5.13831 264.577 5.13831C260.861 5.13831 256.856 5.21462 256.856 7.12877Z" fill="#2888A2"/>
<path d="M325.855 12.9921C326.189 11.7266 327.492 10.9698 328.769 11.3068C330.053 11.6375 330.842 12.9348 330.508 14.2003C330.168 15.4722 328.84 16.2099 327.556 15.8792C326.279 15.5485 325.515 14.2639 325.855 12.9921ZM312.305 9.46264C312.639 8.19714 313.936 7.44038 315.219 7.77743C316.497 8.10811 317.293 9.40541 316.959 10.6709C316.625 11.9428 315.29 12.6804 314.006 12.3498C312.723 12.0127 311.965 10.7345 312.305 9.46264Z" fill="#2888A2"/>
<path d="M303.583 17.2909C304.526 17.4245 305.38 18.4992 306.144 19.0016C307.151 19.7711 308.3 20.4579 309.398 21.0493C310.547 21.7361 311.702 22.2321 312.87 22.7281C314.148 23.2178 315.483 23.6375 316.875 24C319.7 24.7313 322.639 25.1447 325.553 25.2464C327.415 25.3037 329.295 25.132 331.266 24.9475C332.376 24.7695 334.218 23.8537 333.974 25.6534C333.897 26.4038 333.435 27.256 332.947 27.752C331.888 28.6423 330.361 28.9412 329.077 29.1892C327.492 29.5517 325.893 29.6788 324.27 29.7615C322.652 29.806 321.131 29.7997 319.533 29.6153C318.005 29.4881 316.664 29.221 315.528 28.9221C314.103 28.5533 312.646 28.1272 311.413 27.6184C310.097 27.1224 308.929 26.5056 307.825 25.787C306.644 25.0874 305.617 24.2416 304.603 23.3195C303.66 22.3021 302.042 20.7186 301.92 19.2496C301.818 18.4483 302.357 17.4626 303.082 17.2273C303.275 17.2401 303.39 17.2273 303.576 17.2782L303.583 17.2909Z" fill="#2888A2"/>
</g>
<defs>
<clipPath id="clip0_50_1988">
<rect width="334" height="32" fill="white"/>
</clipPath>
</defs>
</svg>
