<svg width="461" height="111" viewBox="0 0 461 111" fill="none" xmlns="http://www.w3.org/2000/svg">
<path d="M441.2 101.786C441.416 102.164 441.632 102.542 441.74 103.028C441.956 103.784 442.118 104.756 441.632 105.782C441.092 106.862 440.228 107.51 439.256 107.564H439.202C437.906 107.564 437.042 106.538 435.962 105.35C434.882 104.216 433.91 102.866 433.208 101.948C433.154 101.786 432.992 101.624 432.884 101.354C431.102 98.6 430.292 97.79 430.13 97.736C429.968 97.844 429.212 98.708 429.104 98.87C428.942 99.086 428.78 99.248 428.672 99.41C428.024 100.112 427.754 100.922 427.16 101.678C426.566 102.434 425.972 103.19 425.324 103.892C425.162 104.054 425 104.27 424.892 104.432C423.812 105.62 422.678 106.97 421.112 107.51C420.734 107.672 420.41 107.726 420.032 107.726C419.222 107.726 418.412 107.348 417.818 106.754C417.224 106.16 416.9 105.35 416.9 104.486C416.954 103.19 417.71 102.002 418.304 101.03L418.412 100.814C418.628 100.49 418.844 100.166 419.06 99.896C419.168 99.68 419.33 99.518 419.438 99.356C419.816 98.762 420.194 98.222 420.572 97.79C420.68 97.682 420.734 97.52 420.842 97.412C420.896 97.304 420.95 97.196 421.058 97.142L421.166 96.98C421.436 96.602 421.652 96.278 421.868 95.954C422.354 95.198 422.732 94.496 423.11 93.848C423.542 93.038 423.974 92.282 424.514 91.58C424.892 91.04 425.27 90.446 425.648 89.852L425.864 89.528C426.35 88.718 426.62 88.178 426.674 87.422C426.782 86.288 426.782 85.208 426.782 83.912V73.976C426.782 73.274 426.782 72.626 426.836 71.924C426.836 71.168 426.998 70.304 427.214 69.656C427.376 69.224 427.646 68.684 427.916 68.252C428.294 67.712 429.05 67.442 429.806 67.28L429.914 67.226C430.508 67.064 431.264 67.118 431.858 67.334C432.128 67.442 432.452 67.604 432.668 67.82C432.992 68.09 433.208 68.63 433.424 69.224C433.748 69.926 433.964 70.844 434.072 71.87C434.342 74.894 434.396 79.43 434.396 82.454C434.45 84.29 434.45 86.18 434.558 87.962C434.612 89.528 435.476 90.878 436.232 92.228C437.042 93.794 437.744 95.36 438.662 96.872C439.04 97.574 439.418 98.276 439.85 98.978C440.012 99.302 440.174 99.626 440.336 99.896C440.498 100.274 440.714 100.652 440.876 101.03L441.038 101.462L441.2 101.786ZM455.51 83.588H455.618C455.942 83.588 456.266 83.696 456.644 83.696C457.022 83.75 457.454 83.804 457.886 83.858C458.696 84.02 459.56 84.344 459.938 85.154C460.208 85.586 460.316 86.072 460.316 86.558C460.316 87.098 460.316 87.584 460.154 88.124C460.046 88.664 459.884 89.42 459.398 89.798C458.966 90.122 458.48 90.392 457.94 90.5C456.806 90.662 454.862 90.5 453.728 90.554C453.62 90.554 453.566 90.608 453.566 90.608C453.566 90.608 453.512 90.608 453.512 90.824C453.458 92.606 453.512 95.792 453.512 97.628C453.566 99.464 453.566 101.354 453.512 103.136V103.892C453.512 105.782 453.512 108.536 452.216 109.832C451.784 110.318 451.19 110.588 450.488 110.588C450.488 110.588 450.434 110.534 450.38 110.534C446.87 110.426 446.492 106.214 446.492 103.946V71.87C446.492 71.762 446.438 69.062 447.626 67.874C448.112 67.388 449.246 67.118 450.056 67.118C450.866 67.118 451.568 67.442 452.054 67.928C453.026 68.954 453.08 70.088 453.188 71.276C453.242 71.492 453.242 71.708 453.242 71.924C453.404 73.112 453.404 74.462 453.458 75.758C453.458 76.568 453.512 77.27 453.512 78.08C453.458 78.512 453.512 78.89 453.512 79.268V82.292C453.512 82.67 453.512 83.102 453.62 83.48C453.62 83.534 454.7 83.534 454.754 83.534C455.024 83.588 455.24 83.642 455.51 83.588Z" fill="white"/>
<path d="M379.312 100.004C379.582 99.896 385.09 99.68 386.008 99.68C386.062 98.87 386.116 95.846 386.224 94.118C385.414 93.956 384.658 93.74 383.902 93.416C379.852 91.742 376.72 88.448 376.72 83.696C376.72 81.104 377.476 79.106 378.718 77.54H377.044C375.316 77.54 373.858 76.244 373.858 74.678C373.858 73.058 375.316 71.762 377.044 71.762H384.712V69.008C384.712 67.604 386.656 66.578 388.384 66.578C390.166 66.578 391.84 67.604 391.84 69.008V71.762H400.156C401.938 71.762 403.396 73.058 403.396 74.678C403.396 76.244 401.938 77.54 400.156 77.54H398.86C400.102 79.106 400.912 81.104 400.912 83.696C400.912 87.044 399.292 89.798 396.592 91.85C395.404 92.714 394.054 93.416 392.704 93.794C392.812 95.36 392.812 98.816 392.812 99.626V99.68C393.406 99.68 397.294 99.896 397.942 99.896H400.48C401.668 99.896 402.64 100.112 403.342 100.544C404.962 101.516 404.908 103.946 404.206 105.242C403.558 106.376 402.154 106.484 401.02 106.484H378.664C378.61 106.484 376.774 106.322 375.802 105.89C375.1 105.512 374.56 104.702 374.398 103.676C374.236 102.542 374.614 101.894 375.316 101.246C376.612 100.166 378.07 100.004 379.312 100.004ZM413.926 96.872C413.98 98.708 413.98 100.598 413.926 102.38V103.136C413.926 105.026 413.98 107.78 412.684 109.13C412.198 109.562 411.604 109.832 410.902 109.832H410.794C407.284 109.67 406.96 105.458 406.96 102.92V71.114C406.96 71.006 406.852 68.306 408.04 67.118C408.58 66.632 409.714 66.362 410.47 66.362C411.28 66.362 412.036 66.686 412.522 67.172C413.44 68.198 413.602 69.332 413.656 70.52C413.71 70.736 413.71 70.952 413.764 71.222C413.872 72.572 413.926 76.136 413.926 78.566V96.872ZM389.842 88.016C392.164 87.584 394.162 86.45 394.162 83.696C394.162 80.51 391.516 79.322 388.87 79.268C386.17 79.16 383.47 80.294 383.47 83.696C383.47 87.584 386.872 88.61 389.842 88.016Z" fill="white"/>
<path d="M323.2 71.492C323.2 69.656 324.334 67.28 326.656 67.28C329.14 67.28 329.95 69.116 330.166 71.546L330.49 76.514C330.598 78.026 330.814 78.566 332.65 78.566H349.12C350.956 78.566 355.006 78.674 355.06 81.536C355.114 84.344 351.82 84.398 348.958 84.398H330.49C328.978 84.398 327.142 84.398 325.684 83.696C324.118 82.94 323.254 81.05 323.254 79.214C323.254 78.458 323.2 73.328 323.2 71.492ZM330.436 104L354.412 104.108C355.978 104.108 357.922 105.08 357.76 107.402C357.598 109.562 355.654 110.264 354.196 110.264H328.06C324.766 110.264 323.632 108.752 323.632 107.132V100.922C323.632 98.87 325.252 97.358 326.764 97.358C329.14 97.358 330.112 98.978 330.22 100.652L330.436 104ZM355.276 88.34C357.76 88.34 359.866 88.934 359.866 91.634C359.866 94.226 356.734 94.55 354.52 94.55L323.686 94.496C322.552 94.496 319.528 94.172 319.528 91.688C319.528 89.42 321.418 88.502 323.578 88.394C328.276 88.178 333.19 88.34 355.276 88.34Z" fill="white"/>
<path d="M280.644 99.572C280.914 99.464 285.342 99.68 286.26 99.68C286.368 98.546 286.476 92.822 286.638 92.39C286.638 92.336 286.638 92.282 286.692 92.228C286.368 92.228 286.044 92.174 285.828 92.174C284.262 92.174 282.426 92.174 280.968 91.688C279.834 91.364 278.754 90.446 278.214 89.258C277.89 88.556 277.782 87.746 277.836 86.828C277.782 86.612 277.674 76.298 277.62 75.92C277.566 74.516 277.458 72.788 278.322 71.384C279.24 69.926 282.372 69.872 282.75 69.872H297.168C298.572 69.872 299.868 69.926 301.218 70.466C302.352 70.898 303.054 71.978 303 73.22C302.892 74.354 302.136 75.272 300.948 75.542C300.354 75.704 299.382 75.812 298.032 75.812C297.168 75.812 296.466 75.758 296.466 75.758H287.772C286.854 75.758 285.72 75.812 285.234 76.028C284.1 76.46 284.154 77 284.316 78.08L284.37 84.074C284.316 84.722 284.37 85.37 284.694 85.694C284.856 85.91 285.342 86.072 286.098 86.072C286.476 86.072 286.908 86.018 287.34 85.964L297.114 85.91C298.788 85.91 300.192 86.18 301.326 86.666C302.028 86.99 302.514 87.638 302.73 88.448C302.892 89.258 302.73 90.122 302.244 90.77C301.164 92.066 299.868 92.12 298.41 92.174C297.708 92.228 295.278 92.228 292.74 92.228C292.794 92.336 292.794 92.444 292.848 92.552C293.064 93.092 293.064 98.6 293.064 99.626V99.68H301.866C303.054 99.68 304.026 99.896 304.728 100.328C306.348 101.3 306.294 103.946 305.592 105.242C304.944 106.376 303.54 106.484 302.406 106.484H279.996C279.942 106.484 278.106 106.322 277.134 105.89C276.432 105.512 275.892 104.702 275.73 103.676C275.568 102.542 275.946 101.462 276.648 100.814C277.944 99.734 279.402 99.572 280.644 99.572ZM316.338 96.872C316.392 98.708 316.392 100.598 316.338 102.38V103.136C316.338 105.026 316.392 107.78 315.096 109.13C314.61 109.562 314.016 109.832 313.314 109.832H313.206C309.696 109.67 309.372 105.458 309.372 103.19V71.114C309.372 71.006 309.264 68.306 310.452 67.118C310.992 66.632 312.126 66.362 312.882 66.362C313.692 66.362 314.448 66.686 314.934 67.172C315.852 68.198 315.96 69.332 316.014 70.52C316.068 70.736 316.068 70.952 316.122 71.222C316.23 72.356 316.23 73.706 316.284 75.002C316.284 75.812 316.338 76.568 316.338 77.324V96.872Z" fill="white"/>
<path d="M233.671 66.956C234.589 66.956 235.453 67.064 236.317 67.172C237.667 67.388 238.909 68.036 239.935 69.062C243.445 72.734 244.201 79.052 244.417 84.182C244.579 87.476 244.525 90.824 244.147 94.064C243.769 97.412 243.283 101.03 241.501 103.784C239.989 106.106 237.613 107.618 235.183 108.104C232.969 108.536 230.539 108.266 228.487 107.078C226.543 105.944 225.247 104.162 224.275 101.894C223.573 100.22 223.141 98.384 223.033 96.548C222.763 93.524 222.655 90.5 222.655 87.476C222.655 85.424 222.763 83.426 222.979 81.428C223.087 79.808 223.249 78.134 223.519 76.568C223.789 75.272 223.951 74.138 224.491 72.95C225.031 71.762 225.733 70.628 226.651 69.764C228.217 68.198 230.269 67.334 232.321 67.064C232.753 67.01 233.239 67.01 233.671 66.956ZM259.861 105.62C259.753 106.484 259.699 107.294 259.429 108.158C259.321 108.428 259.213 108.644 259.105 108.914C258.889 109.346 258.565 109.778 258.133 110.102C257.323 110.588 256.297 110.696 255.379 110.48C254.839 110.372 254.353 110.156 253.975 109.832C252.679 108.644 252.733 105.836 252.733 105.728V73.058C252.679 71.384 252.733 68.684 253.759 67.712C254.515 66.956 255.433 66.848 256.405 66.848C257.647 66.848 258.781 67.604 259.213 68.792C259.861 70.304 259.807 71.978 259.861 73.652V73.922C260.023 79.43 259.861 85.532 259.861 90.716V103.676C259.861 104.324 259.915 104.972 259.861 105.62ZM233.509 100.922C234.157 100.922 234.859 100.706 235.507 100.274C236.695 99.41 237.127 97.898 237.451 96.17C238.045 92.876 237.991 88.88 237.883 85.478C237.829 82.724 237.775 79.16 236.479 76.946C235.777 75.758 234.697 75.002 233.563 75.164C232.375 75.272 231.295 76.028 230.647 77.432L230.161 78.566C229.729 79.916 229.513 81.428 229.405 82.886C229.297 84.344 229.189 85.856 229.189 87.314C229.243 88.772 229.081 90.122 229.189 91.526C229.459 95.252 229.945 100.868 233.509 100.922Z" fill="white"/>
<path d="M196.633 73.706C196.579 73.652 196.579 78.944 196.633 79.214C197.011 79.538 198.145 80.618 198.793 81.158C199.495 81.752 200.251 82.454 201.061 83.21C201.547 83.696 201.979 84.182 202.357 84.56C203.707 85.91 205.327 87.584 205.813 89.204C206.029 89.852 205.921 90.77 205.165 91.31C204.625 91.634 203.977 91.85 203.221 91.85C201.655 91.85 200.089 91.04 199.225 90.392C197.875 89.366 196.741 88.232 195.607 87.098C194.797 86.288 193.771 85.1 192.745 84.344L191.287 85.802C190.801 86.288 190.261 86.774 189.829 87.26C188.911 88.286 187.939 89.366 186.643 90.284C185.185 91.364 183.781 91.904 182.485 91.904C182.161 91.904 181.891 91.904 181.567 91.796C180.811 91.634 180.271 91.31 180.001 90.824C179.515 90.014 179.785 88.88 180.217 88.124C180.757 87.314 181.567 86.558 182.269 85.802C183.565 84.398 188.479 79.808 189.073 79.214V73.706H185.617C183.835 73.706 180.757 74.138 179.839 72.032C179.515 71.222 179.353 70.142 179.569 69.278C179.839 68.252 181.081 67.928 181.999 67.82C182.323 67.766 186.805 67.874 187.291 67.766H199.927C202.789 67.766 204.787 67.982 205.975 69.386C206.677 70.25 206.461 72.572 205.327 73.112C204.787 73.328 203.869 73.652 203.275 73.706C202.249 73.76 201.223 73.706 200.197 73.706H196.633ZM216.775 104.27C216.829 104.324 218.989 104.81 219.205 106.322C219.367 107.672 219.151 108.752 218.503 109.508C217.639 110.534 216.343 110.588 216.289 110.588H189.235C186.319 110.588 184.537 109.616 184.537 107.996V100.49C184.483 99.68 184.483 97.574 184.537 96.764C184.699 95.252 186.211 94.226 187.831 94.226C188.209 94.226 188.803 94.28 189.181 94.388C191.125 94.982 191.233 97.358 191.341 98.978C191.395 99.572 191.287 103.784 191.341 104.162C191.557 104.216 192.313 104.378 194.959 104.378C197.281 104.378 199.387 104.27 199.441 104.27H216.775ZM211.861 83.372H209.485C207.379 83.264 205.651 83.426 204.733 82.022C204.301 81.32 204.355 80.024 204.517 79.268C204.733 78.458 205.219 77.918 206.623 77.594C207.217 77.486 211.267 77.378 211.861 77.324V71.6C211.807 70.844 211.807 69.98 212.023 69.224C212.185 68.684 212.239 68.144 212.725 67.604C213.319 66.902 214.453 66.578 215.641 66.74C216.721 66.902 217.531 67.388 217.855 68.09C218.287 68.954 218.341 70.574 218.341 70.844V92.768H218.287C218.287 92.876 218.071 94.82 216.667 95.684C216.181 95.954 215.695 96.116 215.155 96.116C214.507 96.116 213.913 95.9 213.373 95.522C212.995 95.252 212.671 94.928 212.455 94.442C212.023 93.686 211.915 92.822 211.861 92.066V83.372Z" fill="white"/>
<path d="M155.542 81.158V73.976C155.542 72.518 155.542 68.144 158.944 68.144C159.646 68.144 160.402 68.36 160.942 68.738C162.67 69.872 162.616 75.326 162.508 77.648V97.466C162.508 97.898 162.562 103.46 161.374 105.62C161.158 106.106 160.564 106.754 160.348 106.97C159.268 108.05 157.27 108.158 156.784 108.212H145.444C143.716 108.212 142.15 108.05 140.854 107.024C138.964 105.62 139.18 102.164 139.18 101.678V73.436C139.18 71.384 140.098 68.252 142.636 68.252C144.472 68.252 145.606 69.008 146.146 70.574C146.47 71.546 146.524 72.626 146.578 73.598V73.706C146.578 74.732 146.578 82.832 146.632 84.56C147.334 84.56 153.598 84.668 155.434 84.29L155.542 81.158ZM176.44 105.674C176.332 106.538 176.278 107.348 176.008 108.212C175.9 108.482 175.792 108.698 175.684 108.968C175.468 109.4 175.144 109.832 174.712 110.156C173.902 110.642 172.876 110.75 171.958 110.534C171.418 110.426 170.932 110.21 170.554 109.886C169.258 108.698 169.312 105.89 169.312 105.782V73.058C169.258 71.384 169.312 68.684 170.338 67.712C171.094 66.956 172.012 66.848 172.984 66.848C174.226 66.848 175.36 67.604 175.792 68.792C176.44 70.304 176.386 71.978 176.44 73.652V73.922C176.602 79.43 176.44 85.532 176.44 90.716V103.73C176.44 104.378 176.494 105.026 176.44 105.674ZM146.146 101.678L155.542 101.624L155.488 91.094L146.146 91.148C146.092 92.66 146.146 94.604 146.146 96.116C146.2 97.196 146.146 100.652 146.146 101.678Z" fill="white"/>
<path d="M86.9041 90.122C85.4461 89.096 84.4201 87.584 83.8261 85.802C83.1241 83.966 82.9081 82.238 82.9081 80.456C82.9081 78.566 83.2321 77 83.8261 75.434C84.5281 73.922 85.3381 72.572 86.4721 71.546C87.6061 70.358 88.8481 69.494 90.4681 68.9C91.9261 68.198 93.6541 67.874 95.4901 67.874C96.1921 67.766 96.7321 67.766 97.3801 67.874C97.9741 67.874 98.6761 67.982 99.2701 68.09C99.5401 68.198 99.9181 68.198 100.242 68.306C100.62 68.306 100.944 68.468 101.16 68.576C101.97 68.792 102.618 69.008 103.32 69.386C104.022 69.71 104.616 70.034 105.156 70.358C105.588 70.574 106.182 71.06 106.668 71.546C107.37 72.248 107.802 72.788 108.234 73.544C108.666 74.246 109.044 75.056 109.152 75.974C109.368 76.784 109.476 77.594 109.638 78.404C109.746 79.16 109.854 79.97 109.746 80.888C109.746 81.32 109.638 81.914 109.638 82.346C109.476 82.94 109.476 83.534 109.26 83.966C109.044 85.316 108.558 86.72 107.91 87.854C107.1 89.096 106.182 89.96 104.94 90.824C104.022 91.364 103.104 91.85 102.078 92.066C101.16 92.336 100.134 92.498 99.1621 92.714C98.7841 92.822 98.4601 92.822 98.0821 92.822C97.8661 92.822 97.4881 92.822 97.1641 92.93H96.1921C95.9221 92.93 95.5981 92.93 95.2201 92.822C94.7881 92.822 94.3021 92.822 93.8701 92.714C93.3301 92.714 92.8441 92.606 92.3581 92.606C91.3321 92.444 90.4681 92.174 89.5501 91.742C88.5781 91.256 87.7141 90.824 86.9041 90.122ZM121.734 73.976V77.486C121.842 78.89 121.842 80.456 121.842 82.076V90.824C121.842 92.444 121.842 93.902 121.734 95.252V101.408C121.626 102.542 121.734 103.73 121.734 104.702C121.734 105.404 121.734 106.106 121.626 106.646C121.626 107.24 121.518 107.672 121.248 108.05C121.14 108.374 120.924 108.59 120.816 108.968C120.546 109.184 120.33 109.508 119.736 109.724C119.088 110.21 118.17 110.318 117.252 110.21C116.658 110.048 116.226 109.832 115.902 109.508C115.578 109.292 115.308 108.86 115.092 108.374C114.876 107.888 114.714 107.456 114.714 106.97C114.606 106.646 114.498 106.214 114.498 105.998V105.404L114.39 73.382C114.39 72.464 114.39 71.546 114.606 70.412C114.714 69.386 115.092 68.576 115.578 68.036C116.01 67.712 116.442 67.442 116.766 67.334C117.252 67.226 117.684 67.226 118.278 67.226C118.872 67.226 119.412 67.334 120.006 67.712C120.438 68.036 120.816 68.522 121.032 69.062C121.356 69.872 121.626 70.682 121.626 71.438C121.626 72.248 121.626 73.166 121.734 73.976ZM109.854 98.87C110.34 99.032 110.772 99.248 111.096 99.464C111.798 100.166 112.23 100.868 112.23 101.732C112.23 102.326 112.014 102.92 111.636 103.352C111.312 103.784 110.934 104.108 110.448 104.27C110.07 104.378 109.746 104.486 109.368 104.486C108.936 104.594 108.558 104.594 108.234 104.594H103.104C101.862 104.594 100.62 104.594 99.2701 104.702H95.4901C94.1941 104.594 93.2221 104.594 92.2501 104.594H86.5801C85.8781 104.594 85.2301 104.486 84.5281 104.378C84.1501 104.27 83.8261 104.108 83.5021 104C83.1241 103.892 82.9081 103.784 82.5841 103.514C82.1521 103.028 81.8821 102.434 81.8821 101.516C81.8821 100.76 82.1521 100.166 82.5841 99.68C82.8001 99.356 83.1241 99.14 83.6101 99.032C84.0421 98.87 84.5281 98.762 84.8521 98.654C85.3381 98.546 85.6081 98.546 85.8781 98.546H106.29C106.992 98.546 107.694 98.546 108.234 98.654C108.828 98.654 109.26 98.762 109.854 98.87ZM90.0901 79.484C89.9821 80.186 89.9821 80.888 90.0901 81.644C90.2521 82.454 90.4681 83.156 90.7921 83.75C91.5481 84.884 92.6281 85.694 93.9781 86.234C95.0041 86.612 96.0301 86.72 97.0561 86.72C97.6501 86.612 98.0821 86.612 98.6761 86.504C99.1621 86.504 99.6481 86.234 100.134 86.018C100.836 85.694 101.43 85.1 101.862 84.398C102.348 83.642 102.51 82.94 102.726 82.13C102.996 80.888 102.888 79.862 102.51 78.674C102.348 78.188 102.078 77.702 101.862 77.324C101.646 77.108 101.538 76.784 101.268 76.676C101.16 76.406 100.944 76.19 100.62 75.974C100.35 75.812 100.026 75.65 99.7561 75.542C99.4861 75.326 99.1621 75.218 98.7841 75.056C97.8661 74.84 96.9481 74.732 95.9221 74.732C95.0041 74.732 94.0861 74.84 93.3301 75.218C92.5201 75.542 91.8181 75.974 91.2241 76.784C90.6841 77.486 90.3601 78.404 90.0901 79.484Z" fill="white"/>
<path d="M50.3703 92.12C48.9663 92.444 49.3983 94.01 49.3983 94.982C49.3983 95.846 49.3983 97.952 49.5063 98.924C49.5063 99.356 49.3983 100.328 49.7223 100.652C49.7223 100.76 49.9383 100.868 50.0463 100.868C51.6663 100.868 53.9343 100.868 55.5543 100.76C58.0923 100.76 61.0083 100.652 63.4923 100.868C64.4643 100.976 65.0043 101.408 65.3283 101.948C65.7603 102.488 65.8683 103.244 65.8683 104C65.9763 104.864 65.6523 105.674 65.3283 106.106C65.0043 106.538 64.4643 106.862 63.9243 107.186C62.5203 107.834 61.1163 107.618 59.6043 107.726C58.3083 107.726 56.4723 107.834 55.1223 107.726C54.0423 107.618 52.5303 107.726 51.5583 107.726C50.5863 107.618 49.6143 107.726 48.6423 107.726C46.9143 107.618 45.0783 107.51 43.6743 106.538C43.0803 106.214 42.7563 105.674 42.5403 105.08C42.1083 104.216 41.8923 103.028 42.0003 102.056C42.1083 98.816 41.8923 94.334 41.8923 90.932C41.8923 89.636 41.6763 88.016 42.3243 86.936C43.5663 84.884 45.6183 85.316 47.5623 85.316H52.5303C53.3943 85.316 55.7703 85.316 56.6883 85.1C57.0123 84.992 57.2283 84.776 57.3363 84.452C57.6603 82.616 57.6603 80.132 57.5523 78.296C57.5523 77.54 57.6603 76.028 57.2283 75.38C57.0123 75.056 56.4723 74.84 55.5543 74.84L45.5103 74.948C44.5383 74.948 43.0803 74.732 42.4323 73.976C42.2163 73.652 42.0003 73.328 41.7843 72.788C41.2443 70.844 42.2163 69.062 44.2143 68.63C45.9423 68.306 47.6703 68.522 49.3983 68.414H57.5523C58.9563 68.414 60.5763 68.306 61.9803 68.738C62.7363 68.954 63.3843 69.494 63.9243 70.358C64.0323 70.682 64.1403 70.952 64.2483 71.384C64.3563 71.708 64.4643 72.032 64.4643 72.356C64.5723 73.544 64.5723 75.488 64.5723 76.568C64.5723 78.836 64.6803 81.59 64.6803 83.912C64.6803 86.288 64.7883 88.664 64.1403 90.284C63.8163 90.932 63.2763 91.472 62.6283 91.688C61.4403 92.228 59.8203 92.012 58.6323 92.012C57.0123 92.012 54.1503 92.12 52.8543 92.12C51.6663 92.12 51.5583 91.904 50.3703 92.12ZM79.8003 105.296C79.6923 106.16 79.6383 106.97 79.3683 107.834C79.2603 108.104 79.1523 108.32 79.0443 108.59C78.8283 109.022 78.5043 109.454 78.0723 109.778C77.2623 110.264 76.2363 110.372 75.3183 110.156C74.7783 110.048 74.2923 109.832 73.9143 109.508C72.6183 108.32 72.6723 105.512 72.6723 105.404V73.598C72.6183 71.924 72.6723 69.224 73.6983 68.252C74.4543 67.496 75.3723 67.388 76.3443 67.388C77.5863 67.388 78.7203 68.144 79.1523 69.332C79.8003 70.844 79.7463 72.518 79.8003 74.192V74.462C79.9623 79.97 79.8003 84.506 79.8003 89.69V103.352C79.8003 104 79.8543 104.648 79.8003 105.296Z" fill="white"/>
<path d="M37.3941 76.406C37.5561 77.216 37.6641 77.864 37.5561 78.728C37.5561 79.484 37.5561 80.186 37.3941 80.942C37.0701 83.696 35.7741 85.856 33.1281 87.368C30.6981 88.826 27.1881 89.636 22.8681 89.636H19.1961C17.8461 89.636 16.4961 89.636 15.1461 89.528C13.7421 89.474 12.3921 89.204 11.0961 88.934C9.85408 88.718 8.72008 88.286 7.64008 87.746C5.75008 86.558 4.40008 85.262 3.75208 83.534C2.94208 81.86 2.61808 80.186 2.61808 78.242C2.61808 76.406 2.94208 74.678 3.75208 73.382C4.50808 71.924 5.85808 70.682 7.58608 69.548C8.39608 68.954 9.31408 68.63 10.6101 68.306C11.7981 67.982 13.2021 67.658 14.5521 67.388C16.0101 67.118 17.3061 67.01 18.6561 66.956C19.9521 66.848 21.0861 66.848 22.0041 66.956C23.7321 67.01 25.0821 67.118 26.4861 67.388C27.7281 67.658 29.2401 68.09 30.6981 68.63C31.3461 68.9 32.1021 69.278 32.8581 69.764C33.8301 70.358 34.5321 70.898 34.9641 71.492C35.6121 72.356 36.2061 73.166 36.5301 73.976C36.9621 74.678 37.2321 75.65 37.3941 76.406ZM16.3881 99.842H4.83208C4.07608 99.842 3.26608 99.734 2.45608 99.464C1.75408 99.41 1.16008 98.978 0.728078 98.168C0.242078 97.628 0.0800781 96.926 0.0800781 96.278C0.0800781 95.468 0.350078 94.928 0.944078 94.334C1.16008 94.118 1.53808 93.848 2.02408 93.794C2.34808 93.524 2.78008 93.524 3.26608 93.416C3.64408 93.308 3.91408 93.308 4.23808 93.308H36.2061C36.9081 93.308 37.3941 93.416 38.0421 93.632C38.5821 93.848 39.1221 94.226 39.5001 94.658C39.9321 95.144 39.9861 95.63 39.9861 96.44C39.9861 97.412 39.7701 98.06 39.1221 98.438C38.5821 98.978 37.7721 99.302 36.9621 99.464C36.1521 99.734 35.2881 99.842 34.3701 99.842H23.7861C23.8401 100.058 23.8401 100.274 23.8401 100.436V105.08C23.8401 105.728 23.8401 106.322 23.7321 106.7C23.5701 107.456 23.4621 108.104 23.1381 108.806C22.8681 109.454 22.4901 109.94 21.8421 110.426C21.3021 110.75 20.6541 110.858 19.9521 110.912C19.1961 110.912 18.6021 110.75 18.0081 110.534C17.5221 110.21 17.0901 109.724 16.8741 109.292C16.6581 108.698 16.5501 108.104 16.4961 107.672C16.4961 107.24 16.3881 106.7 16.3881 106.322C16.4961 105.89 16.4961 105.35 16.4961 105.08C16.3881 104.216 16.3881 102.488 16.3881 101.408V99.842ZM30.5361 79.214C30.5361 78.458 30.4281 77.756 30.1041 77.108C29.7261 76.406 29.2401 75.812 28.4301 75.38C27.6201 74.84 26.3241 74.57 25.0281 74.57C23.9481 74.408 22.5441 74.3 20.9781 74.246C19.4121 74.084 17.9001 74.246 16.3881 74.3C14.8761 74.408 13.5261 74.678 12.3921 75.326C11.0961 75.812 10.4481 76.676 10.2861 77.756C10.1241 78.458 10.1241 79.16 10.2861 79.646C10.4481 80.348 10.6641 80.942 11.3121 81.428C11.7441 81.86 12.5001 82.292 13.3641 82.562C14.1741 82.994 15.3081 83.21 16.7661 83.21C17.8461 83.318 18.9261 83.372 20.2761 83.534H24.1641C25.5141 83.372 26.5941 83.21 27.7281 82.994C28.7541 82.562 29.5641 82.076 30.1041 81.428C30.3741 80.672 30.4281 79.97 30.5361 79.214Z" fill="white"/>
<path d="M197.678 0.95596C198.596 0.95596 199.46 1.06396 200.324 1.17196C201.674 1.38796 202.916 2.03596 203.942 3.06196C207.452 6.73396 208.208 13.052 208.424 18.182C208.586 21.476 208.532 24.824 208.154 28.064C207.776 31.412 207.29 35.03 205.508 37.784C203.996 40.106 201.62 41.618 199.19 42.104C196.976 42.536 194.546 42.266 192.494 41.078C190.55 39.944 189.254 38.162 188.282 35.894C187.58 34.22 187.148 32.384 187.04 30.548C186.77 27.524 186.662 24.5 186.662 21.476C186.662 19.424 186.77 17.426 186.986 15.428C187.094 13.808 187.256 12.134 187.526 10.568C187.796 9.27196 187.958 8.13796 188.498 6.94996C189.038 5.76196 189.74 4.62796 190.658 3.76396C192.224 2.19796 194.276 1.33396 196.328 1.06396C196.76 1.00996 197.246 1.00996 197.678 0.95596ZM223.868 39.62C223.76 40.484 223.706 41.294 223.436 42.158C223.328 42.428 223.22 42.644 223.112 42.914C222.896 43.346 222.572 43.778 222.14 44.102C221.33 44.588 220.304 44.696 219.386 44.48C218.846 44.372 218.36 44.156 217.982 43.832C216.686 42.644 216.74 39.836 216.74 39.728V7.05796C216.686 5.38396 216.74 2.68396 217.766 1.71196C218.522 0.95596 219.44 0.847961 220.412 0.847961C221.654 0.847961 222.788 1.60396 223.22 2.79196C223.868 4.30396 223.814 5.97796 223.868 7.65196V7.92196C224.03 13.43 223.868 19.532 223.868 24.716V37.676C223.868 38.324 223.922 38.972 223.868 39.62ZM197.516 34.922C198.164 34.922 198.866 34.706 199.514 34.274C200.702 33.41 201.134 31.898 201.458 30.17C202.052 26.876 201.998 22.88 201.89 19.478C201.836 16.724 201.782 13.16 200.486 10.946C199.784 9.75796 198.704 9.00196 197.57 9.16396C196.382 9.27196 195.302 10.028 194.654 11.432L194.168 12.566C193.736 13.916 193.52 15.428 193.412 16.886C193.304 18.344 193.196 19.856 193.196 21.314C193.25 22.772 193.088 24.122 193.196 25.526C193.466 29.252 193.952 34.868 197.516 34.922Z" fill="white"/>
<path d="M143.985 36.11C143.985 29.576 152.085 27.794 162.021 27.794C171.957 27.794 180.057 28.82 180.057 36.11C180.057 43.292 171.957 44.426 162.021 44.426C152.085 44.426 143.985 43.292 143.985 36.11ZM157.377 7.70597C157.323 7.65197 157.323 12.512 157.377 12.782C157.755 13.106 158.889 14.186 159.537 14.726C160.239 15.32 160.995 16.022 161.805 16.778C162.291 17.264 162.723 17.75 163.101 18.128C164.451 19.478 166.071 21.152 166.557 22.772C166.773 23.42 166.665 24.338 165.909 24.878C165.369 25.202 164.721 25.418 163.965 25.418C162.399 25.418 160.833 24.608 159.969 23.96C158.619 22.934 157.485 21.8 156.351 20.666C155.541 19.856 154.515 18.668 153.489 17.912L152.031 19.37C151.545 19.856 151.005 20.342 150.573 20.828C149.655 21.854 148.683 22.934 147.387 23.852C145.929 24.932 144.525 25.472 143.229 25.472C142.905 25.472 142.635 25.472 142.311 25.364C141.555 25.202 141.015 24.878 140.745 24.392C140.259 23.582 140.529 22.448 140.961 21.692C141.501 20.882 142.311 20.126 143.013 19.37C144.309 17.966 149.223 13.376 149.817 12.782V7.70597H146.361C144.579 7.70597 141.501 8.13797 140.583 6.03197C140.259 5.22197 140.097 4.14197 140.313 3.27797C140.583 2.25197 141.825 1.92797 142.743 1.81997C143.067 1.76597 147.549 1.87397 148.035 1.76597H160.671C163.533 1.76597 165.531 1.98197 166.719 3.38597C167.421 4.24997 167.205 6.57197 166.071 7.11197C165.531 7.32797 164.613 7.65197 164.019 7.70597C162.993 7.75997 161.967 7.70597 160.941 7.70597H157.377ZM180.327 17.264H179.085V22.718C179.031 23.474 178.923 24.338 178.491 25.148C178.275 25.58 177.951 25.958 177.573 26.228C177.033 26.606 176.169 26.768 175.575 26.768C175.035 26.768 174.279 26.66 173.847 26.39C172.389 25.526 172.173 23.528 172.173 23.474V5.11397C172.119 4.84397 172.227 3.16997 172.659 2.30597C172.983 1.60397 174.009 1.11797 175.035 1.00997C176.277 0.847973 177.627 1.17197 178.221 1.81997C178.653 2.35997 178.761 2.89997 178.923 3.49397C179.139 4.19597 179.139 5.05997 179.085 5.81597V9.54198C179.085 9.54198 179.031 10.244 179.085 11.27C179.679 11.324 182.595 11.378 183.243 11.54C184.647 11.81 185.133 12.404 185.295 13.16C185.511 13.916 185.565 15.158 185.133 15.86C184.269 17.264 182.433 17.21 180.327 17.264ZM172.767 36.11C172.767 33.626 167.043 33.41 162.021 33.41C156.999 33.41 151.599 33.626 151.599 36.11C151.599 38.324 156.999 38.756 162.021 38.756C167.043 38.756 172.767 39.026 172.767 36.11Z" fill="white"/>
<path d="M100.798 24.23C100.312 24.014 99.9345 23.582 99.7185 22.988C98.5305 20.072 101.824 17.264 103.444 15.32C104.686 13.808 105.928 12.296 107.116 10.73C107.98 9.54199 109.6 8.13799 109.708 6.57199C109.816 4.14199 109.708 1.54999 112.84 1.54999C113.974 1.54999 115.216 1.65799 115.702 2.79199C116.242 4.08799 115.702 5.76199 116.134 7.11199C116.512 8.29999 117.538 9.10999 118.132 10.136C119.374 12.35 121.156 13.916 122.614 15.914C123.748 17.426 124.936 19.046 125.314 20.882C126.016 24.014 122.02 25.526 120.022 23.474C117.376 20.774 115.324 17.75 113.002 14.78C112.948 14.726 106.522 21.746 105.982 22.394C105.226 23.312 104.362 24.122 103.174 24.392C102.364 24.554 101.5 24.554 100.798 24.23ZM131.146 15.212H128.23C126.124 15.104 124.396 15.266 123.478 13.862C123.046 13.16 123.1 11.756 123.262 11C123.478 10.19 123.964 9.64999 125.368 9.32599C125.962 9.21799 130.552 9.16399 131.146 9.10999V5.59999C131.092 4.84399 131.092 3.97999 131.308 3.22399C131.47 2.68399 131.524 2.14399 132.01 1.60399C132.604 0.901989 133.738 0.57799 134.926 0.739988C136.006 0.901989 136.978 1.38799 137.302 2.08999C137.734 2.95399 137.788 4.57399 137.788 4.84399V22.34H137.734C137.734 22.448 137.518 24.392 136.114 25.256C135.628 25.526 134.98 25.688 134.44 25.688C133.792 25.688 133.198 25.472 132.658 25.094C132.28 24.824 131.956 24.5 131.74 24.014C131.308 23.258 131.2 22.394 131.146 21.638V15.212ZM102.31 36.164C102.31 29.63 110.41 27.848 120.346 27.848C130.282 27.848 138.382 28.874 138.382 36.164C138.382 43.346 130.282 44.48 120.346 44.48C110.41 44.48 102.31 43.346 102.31 36.164ZM131.092 36.164C131.092 33.68 125.368 33.464 120.346 33.464C115.324 33.464 109.924 33.68 109.924 36.164C109.924 38.378 115.324 38.81 120.346 38.81C125.368 38.81 131.092 39.08 131.092 36.164Z" fill="white"/>
<path d="M49.2244 24.122C47.7664 23.096 46.7404 21.584 46.1464 19.802C45.4444 17.966 45.2284 16.238 45.2284 14.456C45.2284 12.566 45.5524 11 46.1464 9.43398C46.8484 7.92198 47.6584 6.57198 48.7924 5.54599C49.9264 4.35798 51.1684 3.49398 52.7884 2.89998C54.2464 2.19798 55.9744 1.87398 57.8104 1.87398C58.5124 1.76599 59.0524 1.76599 59.7004 1.87398C60.2944 1.87398 60.9964 1.98198 61.5904 2.08998C61.8604 2.19798 62.2384 2.19798 62.5624 2.30599C62.9404 2.30599 63.2644 2.46798 63.4804 2.57598C64.2904 2.79199 64.9384 3.00799 65.6404 3.38598C66.3424 3.70998 66.9364 4.03399 67.4764 4.35798C67.9084 4.57398 68.5024 5.05999 68.9884 5.54599C69.6904 6.24799 70.1224 6.78798 70.5544 7.54398C70.9864 8.24599 71.3644 9.05598 71.4724 9.97398C71.6884 10.784 71.7964 11.594 71.9584 12.404C72.0664 13.16 72.1744 13.97 72.0664 14.888C72.0664 15.32 71.9584 15.914 71.9584 16.346C71.7964 16.94 71.7964 17.534 71.5804 17.966C71.3644 19.316 70.8784 20.72 70.2304 21.854C69.4204 23.096 68.5024 23.96 67.2604 24.824C66.3424 25.364 65.4244 25.85 64.3984 26.066C63.4804 26.336 62.4544 26.498 61.4824 26.714C61.1044 26.822 60.7804 26.822 60.4024 26.822C60.1864 26.822 59.8084 26.822 59.4844 26.93H58.5124C58.2424 26.93 57.9184 26.93 57.5404 26.822C57.1084 26.822 56.6224 26.822 56.1904 26.714C55.6504 26.714 55.1644 26.606 54.6784 26.606C53.6524 26.444 52.7884 26.174 51.8704 25.742C50.8984 25.256 50.0344 24.824 49.2244 24.122ZM84.0544 7.97598V11.486C84.1624 12.89 84.1624 14.456 84.1624 16.076V24.824C84.1624 26.444 84.1624 27.902 84.0544 29.252V35.408C83.9464 36.542 84.0544 37.73 84.0544 38.702C84.0544 39.404 84.0544 40.106 83.9464 40.646C83.9464 41.24 83.8384 41.672 83.5684 42.05C83.4604 42.374 83.2444 42.59 83.1364 42.968C82.8664 43.184 82.6504 43.508 82.0564 43.724C81.4084 44.21 80.4904 44.318 79.5724 44.21C78.9784 44.048 78.5464 43.832 78.2224 43.508C77.8984 43.292 77.6284 42.86 77.4124 42.374C77.1964 41.888 77.0344 41.456 77.0344 40.97C76.9264 40.646 76.8184 40.214 76.8184 39.998V39.404L76.7104 7.38198C76.7104 6.46398 76.7104 5.54598 76.9264 4.41198C77.0344 3.38598 77.4124 2.57598 77.8984 2.03598C78.3304 1.71198 78.7624 1.44198 79.0864 1.33398C79.5724 1.22598 80.0044 1.22598 80.5984 1.22598C81.1924 1.22598 81.7324 1.33398 82.3264 1.71198C82.7584 2.03598 83.1364 2.52199 83.3524 3.06199C83.6764 3.87198 83.9464 4.68198 83.9464 5.43798C83.9464 6.24799 83.9464 7.16598 84.0544 7.97598ZM72.1744 32.87C72.6604 33.032 73.0924 33.248 73.4164 33.464C74.1184 34.166 74.5504 34.868 74.5504 35.732C74.5504 36.326 74.3344 36.92 73.9564 37.352C73.6324 37.784 73.2544 38.108 72.7684 38.27C72.3904 38.378 72.0664 38.486 71.6884 38.486C71.2564 38.594 70.8784 38.594 70.5544 38.594H65.4244C64.1824 38.594 62.9404 38.594 61.5904 38.702H57.8104C56.5144 38.594 55.5424 38.594 54.5704 38.594H48.9004C48.1984 38.594 47.5504 38.486 46.8484 38.378C46.4704 38.27 46.1464 38.108 45.8224 38C45.4444 37.892 45.2284 37.784 44.9044 37.514C44.4724 37.028 44.2024 36.434 44.2024 35.516C44.2024 34.76 44.4724 34.166 44.9044 33.68C45.1204 33.356 45.4444 33.14 45.9304 33.032C46.3624 32.87 46.8484 32.762 47.1724 32.654C47.6584 32.546 47.9284 32.546 48.1984 32.546H68.6104C69.3124 32.546 70.0144 32.546 70.5544 32.654C71.1484 32.654 71.5804 32.762 72.1744 32.87ZM52.4104 13.484C52.3024 14.186 52.3024 14.888 52.4104 15.644C52.5724 16.454 52.7884 17.156 53.1124 17.75C53.8684 18.884 54.9484 19.694 56.2984 20.234C57.3244 20.612 58.3504 20.72 59.3764 20.72C59.9704 20.612 60.4024 20.612 60.9964 20.504C61.4824 20.504 61.9684 20.234 62.4544 20.018C63.1564 19.694 63.7504 19.1 64.1824 18.398C64.6684 17.642 64.8304 16.94 65.0464 16.13C65.3164 14.888 65.2084 13.862 64.8304 12.674C64.6684 12.188 64.3984 11.702 64.1824 11.324C63.9664 11.108 63.8584 10.784 63.5884 10.676C63.4804 10.406 63.2644 10.19 62.9404 9.97398C62.6704 9.81198 62.3464 9.64998 62.0764 9.54199C61.8064 9.32599 61.4824 9.21798 61.1044 9.05599C60.1864 8.83999 59.2684 8.73198 58.2424 8.73198C57.3244 8.73198 56.4064 8.83998 55.6504 9.21798C54.8404 9.54198 54.1384 9.97398 53.5444 10.784C53.0044 11.486 52.6804 12.404 52.4104 13.484Z" fill="white"/>
<path d="M10.2861 9.48798V29.684C10.2861 30.71 10.1781 31.682 10.2321 32.654C10.2321 33.14 10.2321 33.734 10.6101 34.058C11.0421 34.436 11.7441 34.382 12.2841 34.382C13.0941 34.382 13.9581 34.436 14.7681 34.436C16.6041 34.436 20.2221 34.382 22.0041 34.598C23.2461 34.76 24.6501 34.922 25.7301 35.624C26.2701 36.002 26.5401 36.65 26.5941 37.298C26.6481 37.622 26.6481 37.946 26.6481 38.324C26.5941 39.134 26.3241 39.89 25.7841 40.484C25.2441 41.078 24.5421 41.402 23.7861 41.564C22.7601 41.726 21.8421 41.888 20.8161 41.888C20.1681 41.888 17.1441 41.834 16.5501 41.834H11.5821C10.1781 41.834 8.82812 41.618 7.42412 41.564C6.34412 41.51 5.10212 41.186 4.29212 40.43C3.53612 39.674 3.15812 38.702 2.94212 37.676C2.51012 35.354 2.72612 32.87 2.72612 30.494V17.264C2.72612 16.022 2.78012 14.726 2.72612 13.43C2.72612 13.214 2.61812 8.73198 2.72612 6.35598C2.83412 4.89798 3.21212 3.11598 5.04812 2.35998C5.85812 2.08998 6.72212 1.87398 7.58612 2.08998C8.45012 2.30598 9.26012 2.84598 9.63812 3.76398C10.0701 4.78998 10.2321 5.92398 10.2321 7.11198C10.2321 7.92198 10.2321 8.67798 10.2861 9.48798ZM39.0141 17.534H39.1221C39.4461 17.534 39.7701 17.642 40.1481 17.642C40.5261 17.696 40.9581 17.75 41.3901 17.804C42.2001 17.966 43.0641 18.29 43.4421 19.1C43.7121 19.532 43.8201 20.018 43.8201 20.504C43.8201 21.044 43.8201 21.53 43.6581 22.07C43.5501 22.61 43.3881 23.366 42.9021 23.744C42.4701 24.068 41.9841 24.338 41.4441 24.446C40.3101 24.608 38.3661 24.446 37.2321 24.5C37.1241 24.5 37.0701 24.554 37.0701 24.554C37.0701 24.554 37.0161 24.554 37.0161 24.77C36.9621 26.552 37.0161 29.792 37.0161 31.628C37.0701 33.464 37.0701 35.354 37.0161 37.136V37.892C37.0161 39.782 37.0161 42.536 35.7201 43.832C35.2881 44.318 34.6941 44.588 33.9921 44.588C33.9921 44.588 33.9381 44.534 33.8841 44.534C30.3741 44.426 29.9961 40.214 29.9961 37.946V5.86998C29.9961 5.76198 29.9421 3.06198 31.1301 1.87398C31.6161 1.38798 32.7501 1.11798 33.5601 1.11798C34.3701 1.11798 35.0721 1.44198 35.5581 1.92798C36.5301 2.95398 36.5841 4.08798 36.6921 5.27598C36.7461 5.49198 36.7461 5.70798 36.7461 5.92398C36.9081 7.11198 36.9081 8.46198 36.9621 9.75798C36.9621 10.568 37.0161 11.27 37.0161 12.08C36.9621 12.512 37.0161 12.89 37.0161 13.268V16.238C37.0161 16.616 37.0161 17.048 37.1241 17.426C37.1241 17.48 38.2041 17.48 38.2581 17.48C38.5281 17.534 38.7441 17.588 39.0141 17.534Z" fill="white"/>
</svg>
