<svg width="183" height="46" viewBox="0 0 183 46" fill="none" xmlns="http://www.w3.org/2000/svg">
<g clip-path="url(#clip0_50_2021)">
<path d="M62.4634 23.8999V36.6159C62.4634 37.2619 62.3954 37.8739 62.4294 38.4859C62.4294 38.7919 62.4294 39.1659 62.6674 39.3699C62.9394 39.6079 63.3814 39.5739 63.7214 39.5739C64.2314 39.5739 64.7754 39.6079 65.2854 39.6079C66.4414 39.6079 68.7194 39.5739 69.8414 39.7099C70.6234 39.8119 71.5074 39.9139 72.1874 40.3559C72.5274 40.5939 72.6974 41.0019 72.7314 41.4099C72.7654 41.6139 72.7654 41.8179 72.7654 42.0559C72.7314 42.5659 72.5614 43.0419 72.2214 43.4159C71.8814 43.7899 71.4394 43.9939 70.9634 44.0959C70.3174 44.1979 69.7394 44.2999 69.0934 44.2999C68.6854 44.2999 66.7814 44.2659 66.4074 44.2659H63.2794C62.3954 44.2659 61.5454 44.1299 60.6614 44.0959C59.9814 44.0619 59.1994 43.8579 58.6894 43.3819C58.2134 42.9059 57.9754 42.2939 57.8394 41.6479C57.5674 40.1859 57.7034 38.6219 57.7034 37.1259V28.7959C57.7034 28.0139 57.7374 27.1979 57.7034 26.3819C57.7034 26.2459 57.6354 23.4239 57.7034 21.9279C57.7714 21.0099 58.0094 19.8879 59.1654 19.4119C59.6754 19.2419 60.2194 19.1059 60.7634 19.2419C61.3074 19.3779 61.8174 19.7179 62.0554 20.2959C62.3274 20.9419 62.4294 21.6559 62.4294 22.4039C62.4294 22.9139 62.4294 23.3899 62.4634 23.8999ZM80.5514 28.9659H80.6194C80.8234 28.9659 81.0274 29.0339 81.2654 29.0339C81.5034 29.0679 81.7754 29.1019 82.0474 29.1359C82.5574 29.2379 83.1014 29.4419 83.3394 29.9519C83.5094 30.2239 83.5774 30.5299 83.5774 30.8359C83.5774 31.1759 83.5774 31.4819 83.4754 31.8219C83.4074 32.1619 83.3054 32.6379 82.9994 32.8759C82.7274 33.0799 82.4214 33.2499 82.0814 33.3179C81.3674 33.4199 80.1434 33.3179 79.4294 33.3519C79.3614 33.3519 79.3274 33.3859 79.3274 33.3859C79.3274 33.3859 79.2934 33.3859 79.2934 33.5219C79.2594 34.6439 79.2934 36.6839 79.2934 37.8399C79.3274 38.9959 79.3274 40.1859 79.2934 41.3079V41.7839C79.2934 42.9739 79.2934 44.7079 78.4774 45.5239C78.2054 45.8299 77.8314 45.9999 77.3894 45.9999C77.3894 45.9999 77.3554 45.9659 77.3214 45.9659C75.1114 45.8979 74.8734 43.2459 74.8734 41.8179V21.6219C74.8734 21.5539 74.8394 19.8539 75.5874 19.1059C75.8934 18.7999 76.6074 18.6299 77.1174 18.6299C77.6274 18.6299 78.0694 18.8339 78.3754 19.1399C78.9874 19.7859 79.0214 20.4999 79.0894 21.2479C79.1234 21.3839 79.1234 21.5199 79.1234 21.6559C79.2254 22.4039 79.2254 23.2539 79.2594 24.0699C79.2594 24.5799 79.2934 25.0219 79.2934 25.5319C79.2594 25.8039 79.2934 26.0419 79.2934 26.2799V28.1499C79.2934 28.3879 79.2934 28.6599 79.3614 28.8979C79.3614 28.9319 80.0414 28.9319 80.0754 28.9319C80.2454 28.9659 80.3814 28.9999 80.5514 28.9659Z" fill="#70D1E9"/>
<path d="M47.8407 41.4779C47.8407 42.5999 47.8067 43.0759 47.4667 44.1299C47.2287 44.8099 46.7187 45.3199 45.7327 45.3199C45.4607 45.3199 44.9847 45.2519 44.7467 45.0819C43.8287 44.5039 43.7947 42.3959 43.7947 41.7159V33.1479L41.2107 33.1139C40.4287 33.0799 39.3407 32.7739 39.2387 31.4139C39.1707 30.5979 39.2387 29.7479 40.2587 29.2719C40.6667 29.0679 41.3807 28.8979 41.8227 28.8979H43.7947V22.0299C43.7947 21.4519 43.7607 20.8059 43.8967 20.2279C43.9647 20.0239 44.0327 19.8199 44.1347 19.6159C44.4067 19.1739 44.6107 18.9359 45.1207 18.7659C45.3247 18.6979 45.6307 18.6639 45.8347 18.6639C46.5827 18.6639 47.1607 19.0379 47.5347 19.6839C47.8747 20.2619 47.8407 21.8939 47.8407 22.0639C47.8747 38.5879 47.8407 41.4779 47.8407 41.4779ZM53.3147 44.3679C53.1787 44.6739 52.9747 44.9119 52.6687 45.1159C52.1927 45.4219 51.8527 45.4899 51.2747 45.3539C49.9147 45.0479 49.6427 43.5519 49.6427 42.3959V22.4039C49.6087 21.3839 49.6427 19.6839 50.2547 19.0719C50.7647 18.6299 51.0027 18.5619 51.6147 18.5619C52.3967 18.5619 53.0767 19.0379 53.3487 19.7519C53.7567 20.7039 53.7227 21.7239 53.7567 22.7439V22.9139C53.8587 26.3479 53.7567 29.4419 53.7567 32.6379V41.1379C53.7567 42.3279 53.7567 43.4159 53.3147 44.3679ZM32.8127 24.2059C31.3847 24.2059 29.7527 24.1719 29.4807 24.1379C28.8007 23.9679 28.2907 23.4239 28.0187 22.6759C27.8487 21.9959 27.9167 21.4859 28.2567 20.9759C28.5967 20.4659 29.1067 20.0919 29.6167 19.9559C29.8887 19.9219 32.3367 19.9219 32.5407 19.9219H38.7287C40.2587 19.9219 41.1767 20.0919 41.8227 21.3839C42.1287 21.9959 42.1967 22.4379 41.9927 23.0159C41.7207 23.5939 41.1767 24.0359 40.5307 24.1379C39.6467 24.2739 38.9667 24.3079 37.0627 24.2059C37.0967 24.5799 37.0627 32.3659 37.0967 32.6379C37.3687 33.0119 37.7767 34.1339 38.0827 34.5759C38.4567 35.0859 38.8307 35.8679 39.2727 36.5819C39.5447 36.9899 39.7827 37.3979 39.9867 37.7379C40.7007 38.9279 41.6187 40.0499 41.9247 41.4439C42.0267 42.0899 42.0267 42.9399 41.5847 43.4159C41.2787 43.7219 40.9047 43.8919 40.4627 43.8919C39.6127 43.8919 38.7627 43.2119 38.2867 42.5999C37.5727 41.6819 36.9267 40.6959 36.3487 39.7439C35.9067 39.0639 35.2607 38.0779 34.8187 37.4659C34.6147 37.8399 34.3767 38.2819 34.1727 38.6219C33.9007 39.0299 33.4927 39.4379 33.2207 39.8459C32.7447 40.7639 32.2347 41.7159 31.5207 42.5319C30.7387 43.4839 30.0927 43.9599 29.3787 43.9599C29.2087 43.9599 29.0387 43.9599 28.8347 43.8919C28.4267 43.7219 28.1207 43.4159 27.9507 42.9399C27.6787 42.1919 28.0187 41.1719 28.3247 40.5259C28.5967 39.7779 29.0047 39.0979 29.4127 38.4519C29.6507 38.0439 29.9227 37.6359 30.1267 37.2279C30.8067 35.9019 32.3707 33.3519 32.8127 32.7739V24.2059Z" fill="#70D1E9"/>
<path d="M12.444 19.3099C15.164 20.7719 16.286 23.3219 16.014 26.8579C15.742 31.3799 13.532 33.5899 8.84 33.5899C6.358 33.5899 4.998 33.7939 2.788 32.3659C0.646 30.9719 0 28.4899 0 26.1099C0 23.7299 0.816 21.5199 2.754 20.0239C4.352 18.7659 6.426 18.1539 8.398 18.3239C10.2 18.4599 10.846 18.5959 12.444 19.3099ZM24.242 41.7159C24.276 41.7499 25.636 42.0559 25.772 43.0079C25.874 43.8579 25.738 44.5379 25.33 45.0139C24.786 45.6599 23.97 45.6939 23.936 45.6939H6.222C4.386 45.6939 3.264 45.0819 3.264 44.0619V39.3359C3.23 38.8259 3.23 37.4999 3.264 36.9899C3.366 36.0379 4.318 35.3919 5.338 35.3919C5.576 35.3919 5.95 35.4259 6.188 35.4939C7.412 35.8679 7.48 37.3639 7.548 38.3839C7.582 38.7579 7.514 41.4099 7.548 41.6479C7.684 41.6819 8.16 41.7839 9.826 41.7839C11.288 41.7839 12.614 41.7159 12.648 41.7159H24.242ZM20.808 28.1839H19.992C18.666 28.1159 17.578 28.2179 17 27.3339C16.728 26.8919 16.762 26.0759 16.864 25.5999C17 25.0899 17.306 24.7499 18.19 24.5459C18.564 24.4779 20.434 24.4099 20.808 24.3759V21.4519C20.774 20.9759 20.774 20.4319 20.91 19.9559C21.012 19.6159 21.046 19.2759 21.352 18.9359C21.726 18.4939 22.44 18.2899 23.188 18.3919C23.868 18.4939 24.378 18.7999 24.582 19.2419C24.854 19.7859 24.888 20.8059 24.888 20.9759V33.7599H24.854C24.854 33.8279 24.718 35.0519 23.834 35.5959C23.528 35.7659 23.222 35.8679 22.882 35.8679C22.474 35.8679 22.1 35.7319 21.76 35.4939C21.522 35.3239 21.318 35.1199 21.182 34.8139C20.91 34.3379 20.842 33.7939 20.808 33.3179V28.1839ZM11.968 27.2319C11.968 25.2599 11.73 23.5939 9.792 22.8799C7.718 22.1659 4.59 22.8119 4.148 25.6339C3.876 27.5719 4.692 29.6799 7.514 29.9179C9.418 30.1219 11.458 29.5099 11.968 27.2319Z" fill="#70D1E9"/>
<path d="M122.842 0.108765C121.265 0.108765 119.986 1.39956 119.986 2.99081V16.6914C119.986 20.2752 117.097 23.1908 113.545 23.1908H105.731C102.179 23.1908 99.2897 20.2752 99.2897 16.6914V15.6516H115.22C116.797 15.6516 118.076 14.3608 118.076 12.7696C118.076 11.1783 116.797 9.88755 115.22 9.88755H99.2897V2.99081C99.2897 1.39956 98.0105 0.108765 96.4336 0.108765C94.8566 0.108765 93.5774 1.39956 93.5774 2.99081V16.6914C93.5774 23.4537 99.0292 28.9549 105.731 28.9549H113.545C120.247 28.9549 125.698 23.4537 125.698 16.6914V2.99081C125.698 1.39956 124.419 0.108765 122.842 0.108765Z" fill="#4CC5E4"/>
<path d="M153.459 21.4335H178.095C179.672 21.4335 180.951 20.1427 180.951 18.5514C180.951 16.9602 179.672 15.6694 178.095 15.6694H153.459C152.168 15.6694 151.063 14.7364 150.934 13.584H176.957C178.534 13.584 179.813 12.2932 179.813 10.7019V8.148C179.813 3.65494 176.191 0 171.738 0H153.96C152.383 0 151.104 1.29079 151.104 2.88204C151.104 4.47329 152.383 5.76409 153.96 5.76409H171.738C172.929 5.76409 173.918 6.65954 174.077 7.81789H148.064C146.487 7.81789 145.208 9.10868 145.208 10.6999V13.3566C145.208 17.8102 148.908 21.4315 153.459 21.4315V21.4335Z" fill="#4CC5E4"/>
<path d="M180.073 23.1433H146.979C145.402 23.1433 144.123 24.4341 144.123 26.0254C144.123 27.6166 145.402 28.9074 146.979 28.9074H180.073C181.65 28.9074 182.93 27.6166 182.93 26.0254C182.93 24.4341 181.65 23.1433 180.073 23.1433Z" fill="#4CC5E4"/>
<path d="M179.239 40.2358H156.934C154.031 40.2358 151.67 37.8519 151.67 34.9224V33.424C151.67 31.8328 150.391 30.542 148.814 30.542C147.237 30.542 145.958 31.8328 145.958 33.424V34.9224C145.958 41.0304 150.883 45.9999 156.936 45.9999H179.241C180.818 45.9999 182.097 44.7091 182.097 43.1178C182.097 41.5266 180.818 40.2358 179.241 40.2358H179.239Z" fill="#4CC5E4"/>
<path d="M139.741 0.100824C139.308 0.0336163 135.441 -0.500095 132.729 1.83835C131.654 2.76741 130.371 4.49703 130.371 7.46012V43.1101C130.371 44.7013 131.65 45.9921 133.227 45.9921C134.804 45.9921 136.083 44.7013 136.083 43.1101V7.46012C136.083 6.84536 136.203 6.43025 136.438 6.22269C136.929 5.79177 138.168 5.69887 138.875 5.79573C140.424 6.03095 141.878 4.9576 142.121 3.39205C142.366 1.81859 141.3 0.34396 139.743 0.0968711L139.741 0.100824Z" fill="#4CC5E4"/>
</g>
<defs>
<clipPath id="clip0_50_2021">
<rect width="182.929" height="45.9999" fill="white"/>
</clipPath>
</defs>
</svg>
