<svg width="180" height="46" viewBox="0 0 180 46" fill="none" xmlns="http://www.w3.org/2000/svg">
<g clip-path="url(#clip0_50_2086)">
<path d="M58.5722 32.74C57.6542 32.094 57.0082 31.142 56.6342 30.02C56.1922 28.864 56.0562 27.776 56.0562 26.654C56.0562 25.464 56.2602 24.478 56.6342 23.492C57.0762 22.54 57.5862 21.69 58.3002 21.044C59.0142 20.296 59.7962 19.752 60.8162 19.378C61.7342 18.936 62.8222 18.732 63.9782 18.732C64.4202 18.664 64.7602 18.664 65.1682 18.732C65.5422 18.732 65.9842 18.8 66.3582 18.868C66.5282 18.936 66.7662 18.936 66.9702 19.004C67.2082 19.004 67.4122 19.106 67.5482 19.174C68.0582 19.31 68.4662 19.446 68.9082 19.684C69.3502 19.888 69.7242 20.092 70.0642 20.296C70.3362 20.432 70.7102 20.738 71.0162 21.044C71.4582 21.486 71.7302 21.826 72.0022 22.302C72.2742 22.744 72.5122 23.254 72.5802 23.832C72.7162 24.342 72.7842 24.852 72.8862 25.362C72.9542 25.838 73.0222 26.348 72.9542 26.926C72.9542 27.198 72.8862 27.572 72.8862 27.844C72.7842 28.218 72.7842 28.592 72.6482 28.864C72.5122 29.714 72.2062 30.598 71.7982 31.312C71.2882 32.094 70.7102 32.638 69.9282 33.182C69.3502 33.522 68.7722 33.828 68.1262 33.964C67.5482 34.134 66.9022 34.236 66.2902 34.372C66.0522 34.44 65.8482 34.44 65.6102 34.44C65.4742 34.44 65.2362 34.44 65.0322 34.508H64.4202C64.2502 34.508 64.0462 34.508 63.8082 34.44C63.5362 34.44 63.2302 34.44 62.9582 34.372C62.6182 34.372 62.3122 34.304 62.0062 34.304C61.3602 34.202 60.8162 34.032 60.2382 33.76C59.6262 33.454 59.0822 33.182 58.5722 32.74ZM80.5022 22.574V24.784C80.5702 25.668 80.5702 26.654 80.5702 27.674V33.182C80.5702 34.202 80.5702 35.12 80.5022 35.97V39.846C80.4342 40.56 80.5022 41.308 80.5022 41.92C80.5022 42.362 80.5022 42.804 80.4342 43.144C80.4342 43.518 80.3662 43.79 80.1962 44.028C80.1282 44.232 79.9922 44.368 79.9242 44.606C79.7542 44.742 79.6182 44.946 79.2442 45.082C78.8362 45.388 78.2582 45.456 77.6802 45.388C77.3062 45.286 77.0342 45.15 76.8302 44.946C76.6262 44.81 76.4562 44.538 76.3202 44.232C76.1842 43.926 76.0822 43.654 76.0822 43.348C76.0142 43.144 75.9462 42.872 75.9462 42.736V42.362L75.8782 22.2C75.8782 21.622 75.8782 21.044 76.0142 20.33C76.0822 19.684 76.3202 19.174 76.6262 18.834C76.8982 18.63 77.1702 18.46 77.3742 18.392C77.6802 18.324 77.9522 18.324 78.3262 18.324C78.7002 18.324 79.0402 18.392 79.4142 18.63C79.6862 18.834 79.9242 19.14 80.0602 19.48C80.2642 19.99 80.4342 20.5 80.4342 20.976C80.4342 21.486 80.4342 22.064 80.5022 22.574ZM73.0222 38.248C73.3282 38.35 73.6002 38.486 73.8042 38.622C74.2462 39.064 74.5182 39.506 74.5182 40.05C74.5182 40.424 74.3822 40.798 74.1442 41.07C73.9402 41.342 73.7022 41.546 73.3962 41.648C73.1582 41.716 72.9542 41.784 72.7162 41.784C72.4442 41.852 72.2062 41.852 72.0022 41.852H68.7722C67.9902 41.852 67.2082 41.852 66.3582 41.92H63.9782C63.1622 41.852 62.5502 41.852 61.9382 41.852H58.3682C57.9262 41.852 57.5182 41.784 57.0762 41.716C56.8382 41.648 56.6342 41.546 56.4302 41.478C56.1922 41.41 56.0562 41.342 55.8522 41.172C55.5802 40.866 55.4102 40.492 55.4102 39.914C55.4102 39.438 55.5802 39.064 55.8522 38.758C55.9882 38.554 56.1922 38.418 56.4982 38.35C56.7702 38.248 57.0762 38.18 57.2802 38.112C57.5862 38.044 57.7562 38.044 57.9262 38.044H70.7782C71.2202 38.044 71.6622 38.044 72.0022 38.112C72.3762 38.112 72.6482 38.18 73.0222 38.248ZM60.5782 26.042C60.5102 26.484 60.5102 26.926 60.5782 27.402C60.6802 27.912 60.8162 28.354 61.0202 28.728C61.4962 29.442 62.1762 29.952 63.0262 30.292C63.6722 30.53 64.3182 30.598 64.9642 30.598C65.3382 30.53 65.6102 30.53 65.9842 30.462C66.2902 30.462 66.5962 30.292 66.9022 30.156C67.3442 29.952 67.7182 29.578 67.9902 29.136C68.2962 28.66 68.3982 28.218 68.5342 27.708C68.7042 26.926 68.6362 26.28 68.3982 25.532C68.2962 25.226 68.1262 24.92 67.9902 24.682C67.8542 24.546 67.7862 24.342 67.6162 24.274C67.5482 24.104 67.4122 23.968 67.2082 23.832C67.0382 23.73 66.8342 23.628 66.6642 23.56C66.4942 23.424 66.2902 23.356 66.0522 23.254C65.4742 23.118 64.8962 23.05 64.2502 23.05C63.6722 23.05 63.0942 23.118 62.6182 23.356C62.1082 23.56 61.6662 23.832 61.2922 24.342C60.9522 24.784 60.7482 25.362 60.5782 26.042Z" fill="#70D1E9"/>
<path d="M50.5795 43.0421C51.2935 43.0761 51.9055 43.3481 52.1095 44.0621C52.3475 44.8781 52.0755 45.4561 51.2255 45.7621C50.6815 46.0001 50.0695 46.0001 49.6275 46.0001H34.4975C33.5795 46.0001 32.5595 46.0001 31.5735 45.9661C30.3495 45.9321 29.9415 45.0821 29.8735 44.0621L29.7375 41.7161C29.7035 41.2061 29.7035 40.0161 30.1115 39.5401C30.7235 38.8941 31.5735 38.7921 32.5595 38.7921H33.6135C33.8175 38.7921 33.9535 38.8261 34.0895 38.8261H48.2335V37.4661H33.7495C33.5115 37.4661 33.2735 37.4321 33.0015 37.4661H32.1855C31.7435 37.4661 31.3695 37.4661 31.0295 37.3981C30.6215 37.2961 30.2815 37.2961 30.0435 36.9221C29.7715 36.4461 29.6695 35.9021 29.8395 35.3581C30.0775 34.6441 31.0975 34.5421 31.6075 34.4401C31.9475 34.4061 32.2875 34.3721 32.6615 34.3721H33.2395C33.4775 34.4061 33.6475 34.4061 33.8855 34.4061H48.5735C50.8515 34.4061 52.1435 35.0521 52.1435 36.6501V39.7781C52.1435 40.3901 51.8715 40.9341 51.1575 41.3761C50.5795 41.7161 49.9675 41.6821 49.3895 41.6821H33.9195V43.0421H50.5795ZM35.9935 18.1201C40.6175 18.4261 43.2015 21.0781 42.8615 25.9401C42.5555 29.9861 40.3795 32.3321 36.0615 32.3321C34.3955 32.3321 32.4915 32.5021 30.4175 31.2101C28.4455 29.9521 27.8335 27.4361 27.8335 25.2601C27.8335 20.3641 31.3015 17.7801 35.9935 18.1201ZM52.1775 21.0101V30.8021C52.1775 30.8361 52.0415 32.1621 51.1575 32.7401C50.8515 32.9101 50.5455 33.0121 50.2055 33.0121C49.7975 33.0121 49.4235 32.8761 49.0835 32.6381C48.8455 32.4681 48.6415 32.2301 48.5055 31.9241C47.8255 30.5641 48.0975 28.5581 48.0975 27.0621C48.1315 25.1241 48.1315 23.8661 48.1315 21.9621V21.5201C48.0975 21.0101 48.0975 20.4321 48.2335 19.9221C48.3355 19.5481 48.5395 19.2081 48.8455 18.8341C49.2195 18.3921 49.9335 18.1541 50.6815 18.2561C51.3275 18.3581 51.8375 18.6981 52.0415 19.1401C52.3135 19.7181 52.2115 20.8401 52.1775 21.0101ZM38.9175 26.3481L38.9515 26.0761C39.1555 24.4441 38.3395 22.8801 36.9115 22.3701C35.0075 21.7241 32.0835 22.3021 31.7095 24.8521C31.4375 26.5861 32.1855 28.4901 34.8035 28.7281C36.6055 28.9321 38.4755 28.4221 38.9175 26.3481Z" fill="#70D1E9"/>
<path d="M5.7545 43.858C5.3125 43.858 4.8365 43.824 4.4625 43.756C4.0545 43.722 3.5785 43.654 3.0685 43.654C2.7285 43.62 2.3885 43.552 2.0145 43.484C1.6065 43.348 1.3345 43.178 1.0625 42.872C0.8245 42.634 0.6205 42.43 0.4845 42.226C0.3485 42.056 0.2805 41.818 0.2125 41.512C0.0425 40.764 -0.0255 39.982 0.00849998 39.166C0.0425 38.35 0.0425 37.602 0.0425 36.854V33.93C0.0425 32.876 0.0425 31.89 0.0425 31.176C0.0425 30.326 0.0425 29.442 0.0425 28.49C0.00849995 27.47 0.00849998 26.552 0.00849998 25.668C0.00849998 24.75 0.00849998 23.968 0.00849998 23.254C0.00849998 22.574 0.00849995 22.098 0.0425 21.86C0.0765 21.384 0.1785 20.908 0.3485 20.398C0.5525 19.888 0.9605 19.48 1.5725 19.242C1.7765 19.174 2.0825 19.106 2.3545 19.038C2.6605 18.97 2.8985 19.004 3.1705 19.072C3.4765 19.14 3.7485 19.242 4.0205 19.412C4.2585 19.582 4.4625 19.854 4.5305 20.16C4.6665 20.5 4.8025 20.84 4.8025 21.214C4.8705 21.588 4.8705 21.928 4.8705 22.302C4.8705 22.574 4.8705 22.914 4.8705 23.424C4.8705 23.968 4.8365 24.308 4.8365 24.58C4.8365 25.09 4.8365 25.668 4.8365 26.382C4.8365 27.164 4.8365 27.946 4.8365 28.762C4.8365 29.68 4.8365 30.53 4.8365 31.448C4.8365 32.298 4.8365 33.182 4.8365 34.032C4.8365 34.882 4.8365 35.664 4.8365 36.378C4.8365 37.126 4.8705 37.738 4.8705 38.248C4.8705 38.384 4.9045 38.554 4.9045 38.724C4.9725 38.894 5.0405 38.996 5.1085 39.098C5.2785 39.234 5.4485 39.336 5.6185 39.336C6.3325 39.37 7.0465 39.404 7.7605 39.438C8.0665 39.472 8.3385 39.472 8.5425 39.472C10.4125 39.472 12.7585 38.996 12.7585 41.58C12.7585 41.682 12.7585 41.784 12.7585 41.92C12.6565 43.314 11.0925 43.586 9.9025 43.654C9.0185 43.688 8.1685 43.858 7.3865 43.858C6.9785 43.858 6.6725 43.858 6.3325 43.858C6.0945 43.858 5.8905 43.858 5.7545 43.858ZM24.5225 23.594V41.886C24.5225 42.464 24.4885 43.144 24.3865 43.79C24.3185 44.436 24.0465 44.912 23.5365 45.32C23.0945 45.524 22.7205 45.66 22.3465 45.66C21.9385 45.66 21.6325 45.49 21.3945 45.218C21.1225 44.912 20.9525 44.64 20.8505 44.232C20.7145 43.824 20.6125 43.416 20.5785 42.94C20.5785 42.498 20.5445 42.158 20.5445 41.852V33.25H17.9605V42.056C18.0285 42.566 18.0285 43.11 17.9265 43.722C17.8585 44.266 17.6885 44.708 17.4845 45.048C17.2125 45.456 16.8045 45.66 16.2265 45.66C15.9885 45.66 15.7165 45.558 15.4445 45.456C15.2405 45.354 15.0365 45.218 14.8325 45.014C14.4585 44.64 14.1865 44.198 14.0845 43.586C13.9825 43.008 13.9825 42.43 13.9825 41.954V20.534C13.9825 19.854 14.0845 19.276 14.2885 18.8C14.5265 18.29 15.0365 17.984 15.7845 17.916C16.3625 17.882 16.8045 18.018 17.0765 18.324C17.3485 18.664 17.5865 19.004 17.7225 19.446C17.8585 19.956 17.9265 20.432 17.9265 20.942C17.9605 21.452 17.9605 21.86 17.9605 22.166V29H20.5445V21.894C20.5445 21.554 20.5445 21.18 20.5445 20.772C20.5445 20.296 20.5785 19.888 20.6465 19.446C20.7485 19.072 20.8845 18.766 21.1225 18.426C21.3945 18.12 21.7685 17.984 22.2785 17.916C22.4825 17.916 22.7545 17.916 22.9925 17.984C23.2305 18.086 23.4345 18.188 23.6045 18.392C23.8765 18.698 24.1145 19.004 24.1825 19.412C24.3185 19.888 24.3865 20.33 24.4205 20.84C24.4885 21.35 24.5225 21.792 24.5225 22.268C24.5225 22.744 24.5225 23.186 24.5225 23.594Z" fill="#70D1E9"/>
<path d="M119.835 0.108887C118.258 0.108887 116.979 1.39968 116.979 2.99093V16.6915C116.979 20.2753 114.089 23.1909 110.538 23.1909H102.723C99.1719 23.1909 96.2824 20.2753 96.2824 16.6915V15.6518H112.213C113.79 15.6518 115.069 14.361 115.069 12.7697C115.069 11.1785 113.79 9.88767 112.213 9.88767H96.2824V2.99093C96.2824 1.39968 95.0032 0.108887 93.4262 0.108887C91.8493 0.108887 90.5701 1.39968 90.5701 2.99093V16.6915C90.5701 23.4538 96.0219 28.955 102.723 28.955H110.538C117.239 28.955 122.691 23.4538 122.691 16.6915V2.99093C122.691 1.39968 121.412 0.108887 119.835 0.108887Z" fill="#4CC5E4"/>
<path d="M150.452 21.4335H175.087C176.664 21.4335 177.944 20.1427 177.944 18.5514C177.944 16.9602 176.664 15.6694 175.087 15.6694H150.452C149.161 15.6694 148.056 14.7364 147.926 13.584H173.949C175.526 13.584 176.805 12.2932 176.805 10.7019V8.148C176.805 3.65494 173.183 0 168.731 0H150.953C149.376 0 148.097 1.29079 148.097 2.88204C148.097 4.47329 149.376 5.76409 150.953 5.76409H168.731C169.922 5.76409 170.911 6.65954 171.07 7.81789H145.057C143.48 7.81789 142.2 9.10868 142.2 10.6999V13.3566C142.2 17.8102 145.901 21.4315 150.452 21.4315V21.4335Z" fill="#4CC5E4"/>
<path d="M177.066 23.1433H143.971C142.394 23.1433 141.115 24.4341 141.115 26.0254C141.115 27.6166 142.394 28.9074 143.971 28.9074H177.066C178.643 28.9074 179.922 27.6166 179.922 26.0254C179.922 24.4341 178.643 23.1433 177.066 23.1433Z" fill="#4CC5E4"/>
<path d="M176.231 40.2358H153.927C151.024 40.2358 148.663 37.8519 148.663 34.9224V33.424C148.663 31.8328 147.384 30.542 145.807 30.542C144.23 30.542 142.951 31.8328 142.951 33.424V34.9224C142.951 41.0304 147.876 45.9999 153.929 45.9999H176.233C177.81 45.9999 179.09 44.7091 179.09 43.1178C179.09 41.5266 177.81 40.2358 176.233 40.2358H176.231Z" fill="#4CC5E4"/>
<path d="M136.733 0.100824C136.3 0.0336163 132.433 -0.500095 129.722 1.83835C128.647 2.76741 127.364 4.49703 127.364 7.46012V43.1101C127.364 44.7013 128.643 45.9921 130.22 45.9921C131.797 45.9921 133.076 44.7013 133.076 43.1101V7.46012C133.076 6.84536 133.195 6.43025 133.43 6.22269C133.922 5.79177 135.16 5.69887 135.867 5.79573C137.417 6.03095 138.87 4.9576 139.113 3.39205C139.358 1.81859 138.293 0.34396 136.735 0.0968711L136.733 0.100824Z" fill="#4CC5E4"/>
</g>
<defs>
<clipPath id="clip0_50_2086">
<rect width="179.922" height="45.9999" fill="white"/>
</clipPath>
</defs>
</svg>
