<svg width="151" height="46" viewBox="0 0 151 46" fill="none" xmlns="http://www.w3.org/2000/svg">
<g clip-path="url(#clip0_50_2044)">
<path d="M42.4742 40.0172C42.6102 40.2552 42.7462 40.4932 42.8142 40.7992C42.9502 41.2752 43.0522 41.8872 42.7462 42.5332C42.4062 43.2132 41.8622 43.6212 41.2502 43.6552H41.2162C40.4002 43.6552 39.8562 43.0092 39.1762 42.2612C38.4962 41.5472 37.9522 40.7652 37.5102 40.1872C37.4762 40.0852 37.3742 39.9832 37.3062 39.8132C36.1842 38.0792 35.6742 37.5012 35.5722 37.4672C35.4702 37.5352 34.9942 38.0792 34.9262 38.1812C34.8242 38.3172 34.7222 38.4192 34.6542 38.5212C34.2462 38.9632 34.0762 39.4732 33.7022 39.9492C33.3282 40.4252 32.9542 40.9012 32.5462 41.3432C32.4442 41.4452 32.3422 41.5812 32.2742 41.6832C31.5942 42.4312 30.8802 43.2812 29.8942 43.6212C29.6562 43.7232 29.4522 43.7572 29.2142 43.7572C28.7042 43.7572 28.1942 43.5192 27.8202 43.1452C27.4462 42.7712 27.2422 42.2612 27.2422 41.7172C27.2762 40.9012 27.7522 40.1532 28.1262 39.5412L28.1942 39.4052C28.3302 39.2012 28.4662 38.9972 28.6022 38.8272C28.6702 38.6912 28.7722 38.5892 28.8402 38.4872C29.0782 38.1132 29.3162 37.7732 29.5542 37.5012C29.6222 37.4332 29.6562 37.3312 29.7242 37.2632C29.7582 37.1952 29.7922 37.1272 29.8602 37.0932L29.9282 36.9912C30.0982 36.7532 30.2342 36.5492 30.3702 36.3452C30.6762 35.8692 30.9142 35.4272 31.1522 35.0192C31.4242 34.5092 31.6962 34.0332 32.0362 33.5912C32.2742 33.2512 32.5122 32.8772 32.7502 32.5032L32.8862 32.2992C33.1922 31.7892 33.3622 31.4492 33.3962 30.9732C33.4642 30.2592 33.4642 29.5792 33.4642 28.7632V23.1532C33.4642 22.7112 33.4642 22.3032 33.4982 21.8612C33.4982 21.3852 33.6002 20.8412 33.7362 20.4332C33.8382 20.1612 34.0082 19.8212 34.1782 19.5492C34.4162 19.2092 34.8922 19.0392 35.3682 18.9372L35.4362 18.9032C35.8102 18.8012 36.0482 18.8352 36.4222 18.9712C36.5922 19.0392 36.7962 19.1412 36.9322 19.2772C37.1362 19.4472 37.2722 19.7872 37.4082 20.1612C37.6122 20.6032 37.7482 21.1812 37.8162 21.8272C37.9862 23.7312 38.0202 25.9412 38.0202 27.8452C38.0542 29.0012 38.0542 30.1912 38.1222 31.3132C38.1562 32.2992 38.7682 33.1492 39.2442 33.9992C39.7542 34.9852 40.2982 35.9712 40.8762 36.9232C41.1142 37.3652 41.3522 37.8072 41.6242 38.2492C41.7262 38.4532 41.8282 38.6572 41.9302 38.8272C42.0322 39.0652 42.1682 39.3032 42.2702 39.5412L42.3722 39.8132L42.4742 40.0172ZM51.0422 42.8732C50.9742 43.4172 50.9402 43.9272 50.7702 44.4712C50.7022 44.6412 50.6342 44.7772 50.5662 44.9472C50.4302 45.2192 50.2262 45.4912 49.9542 45.6952C49.4442 46.0012 48.7982 46.0692 48.2202 45.9332C47.8802 45.8652 47.5742 45.7292 47.3362 45.5252C46.5202 44.7772 46.5542 43.0092 46.5542 42.9412V21.9292C46.5202 20.8752 46.5542 19.1752 47.2002 18.5632C47.6762 18.0872 48.2542 18.0192 48.8662 18.0192C49.6482 18.0192 50.3622 18.4952 50.6342 19.2432C51.0422 20.1952 51.0082 21.2492 51.0422 22.3032V22.4732C51.1442 25.9412 51.0422 29.7832 51.0422 33.0472V41.6492C51.0422 42.0572 51.0762 42.4652 51.0422 42.8732Z" fill="#70D1E9"/>
<path d="M12.444 18.8691C15.164 20.3311 16.286 22.8811 16.014 26.4171C15.742 30.9391 13.532 33.1491 8.84 33.1491C6.358 33.1491 4.998 33.3531 2.788 31.9251C0.646 30.5311 0 28.0491 0 25.6691C0 23.2891 0.816 21.0791 2.754 19.5831C4.352 18.3251 6.426 17.7131 8.398 17.8831C10.2 18.0191 10.846 18.1551 12.444 18.8691ZM21.114 36.2771C23.8 36.1751 24.208 37.5011 24.208 38.5551V42.4991C24.242 42.9751 24.242 43.5191 24.208 43.9951C24.106 44.9471 23.392 45.5931 22.372 45.5931C22.134 45.5931 21.386 45.5591 21.148 45.4911C19.958 45.1171 19.89 43.9951 19.822 42.9751C19.788 42.5671 19.754 40.6631 19.686 40.3231C19.55 40.2891 19.074 40.2211 17.408 40.2211C15.946 40.2211 15.81 40.2551 15.776 40.2891H3.502L3.468 40.2551C3.434 40.2551 2.074 39.9491 1.938 38.9971C1.836 38.1471 1.972 37.4671 2.38 36.9571C2.924 36.3111 3.74 36.3111 3.774 36.3111L21.114 36.2771ZM11.968 26.7911C11.968 24.8191 11.73 23.1531 9.792 22.4391C7.718 21.7251 4.59 22.3711 4.148 25.1931C3.876 27.1311 4.692 29.2391 7.514 29.4771C9.418 29.6811 11.458 29.0691 11.968 26.7911ZM20.808 31.0751H18.972C18.326 31.0751 17.68 30.9391 17.238 30.1571C17 29.7831 16.966 28.7631 17.068 28.4231C17.17 27.9131 17.612 27.5051 18.156 27.3011C18.53 27.1991 20.808 27.1991 20.808 27.1991V24.8871L18.972 24.8531C18.326 24.8531 17.646 24.7171 17.204 23.9351C16.49 22.7451 17.272 21.2151 18.7 21.1471L20.91 21.0451L20.944 19.8211C20.944 19.2771 21.012 18.7671 21.556 18.3591C21.93 18.0871 22.508 18.0191 22.95 17.9851C23.494 17.9171 24.038 18.1551 24.412 18.5631C24.548 18.7331 24.684 18.9371 24.752 19.1411C24.922 19.6851 24.854 20.6371 24.854 21.2151V30.8371C24.854 30.8711 24.956 33.5231 24.072 34.0671C23.766 34.2371 23.222 34.3391 22.882 34.3391C22.474 34.3391 22.1 34.2031 21.76 33.9651C21.522 33.7951 21.318 33.5911 21.182 33.3191C20.91 32.8091 20.842 31.5511 20.808 31.0751Z" fill="#70D1E9"/>
<path d="M90.3525 0.108765C88.7756 0.108765 87.4964 1.39956 87.4964 2.99081V16.6914C87.4964 20.2752 84.6069 23.1908 81.0553 23.1908H73.241C69.6894 23.1908 66.8 20.2752 66.8 16.6914V15.6516H82.7302C84.3072 15.6516 85.5864 14.3608 85.5864 12.7696C85.5864 11.1783 84.3072 9.88755 82.7302 9.88755H66.8V2.99081C66.8 1.39956 65.5208 0.108765 63.9438 0.108765C62.3668 0.108765 61.0876 1.39956 61.0876 2.99081V16.6914C61.0876 23.4537 66.5394 28.9549 73.241 28.9549H81.0553C87.7569 28.9549 93.2087 23.4537 93.2087 16.6914V2.99081C93.2087 1.39956 91.9295 0.108765 90.3525 0.108765Z" fill="#4CC5E4"/>
<path d="M120.969 21.4335H145.605C147.182 21.4335 148.461 20.1427 148.461 18.5514C148.461 16.9602 147.182 15.6694 145.605 15.6694H120.969C119.678 15.6694 118.573 14.7364 118.444 13.584H144.467C146.044 13.584 147.323 12.2932 147.323 10.7019V8.148C147.323 3.65494 143.701 0 139.248 0H121.471C119.894 0 118.614 1.29079 118.614 2.88204C118.614 4.47329 119.894 5.76409 121.471 5.76409H139.248C140.439 5.76409 141.429 6.65954 141.587 7.81789H115.574C113.997 7.81789 112.718 9.10868 112.718 10.6999V13.3566C112.718 17.8102 116.418 21.4315 120.969 21.4315V21.4335Z" fill="#4CC5E4"/>
<path d="M147.584 23.1433H114.489C112.912 23.1433 111.633 24.4341 111.633 26.0254C111.633 27.6166 112.912 28.9074 114.489 28.9074H147.584C149.161 28.9074 150.44 27.6166 150.44 26.0254C150.44 24.4341 149.161 23.1433 147.584 23.1433Z" fill="#4CC5E4"/>
<path d="M146.749 40.2358H124.444C121.541 40.2358 119.181 37.8519 119.181 34.9224V33.424C119.181 31.8328 117.901 30.542 116.324 30.542C114.747 30.542 113.468 31.8328 113.468 33.424V34.9224C113.468 41.0304 118.393 45.9999 124.446 45.9999H146.751C148.328 45.9999 149.607 44.7091 149.607 43.1178C149.607 41.5266 148.328 40.2358 146.751 40.2358H146.749Z" fill="#4CC5E4"/>
<path d="M107.251 0.100824C106.818 0.0336163 102.951 -0.500095 100.24 1.83835C99.1642 2.76741 97.8811 4.49703 97.8811 7.46012V43.1101C97.8811 44.7013 99.1603 45.9921 100.737 45.9921C102.314 45.9921 103.593 44.7013 103.593 43.1101V7.46012C103.593 6.84536 103.713 6.43025 103.948 6.22269C104.44 5.79177 105.678 5.69887 106.385 5.79573C107.934 6.03095 109.388 4.9576 109.631 3.39205C109.876 1.81859 108.81 0.34396 107.253 0.0968711L107.251 0.100824Z" fill="#4CC5E4"/>
</g>
<defs>
<clipPath id="clip0_50_2044">
<rect width="150.44" height="45.9999" fill="white"/>
</clipPath>
</defs>
</svg>
