<svg width="242" height="46" viewBox="0 0 242 46" fill="none" xmlns="http://www.w3.org/2000/svg">
<g clip-path="url(#clip0_50_2067)">
<path d="M119.419 33.0798C118.807 32.7058 118.331 31.9578 118.603 31.0398C118.807 30.5978 118.977 30.1218 119.249 29.7478C120.065 28.3878 121.289 27.3678 122.207 26.0758C123.295 24.7838 124.111 23.7638 125.131 22.3018C125.131 22.3018 125.063 21.0098 125.131 20.6358C125.131 20.2958 125.233 19.9898 125.335 19.6498C125.403 19.3438 125.607 19.0718 125.879 18.9018C126.151 18.7318 126.423 18.6298 126.967 18.6298C127.341 18.6298 127.715 18.6298 127.987 18.7318C128.361 18.7998 128.735 19.1738 128.905 19.5478C129.109 19.9218 129.109 20.7378 129.109 20.7378V22.4038C129.109 22.4038 129.823 23.6958 130.299 24.3418C130.843 25.0558 131.217 25.7018 131.761 26.2458C132.305 26.8918 132.849 27.5378 133.223 28.1158C133.597 28.5578 133.869 28.9318 134.243 29.3738C134.515 29.9518 134.787 30.4958 134.889 31.0398C134.991 31.5838 134.991 31.9578 134.719 32.3318C134.515 32.7058 134.243 32.9778 133.869 33.0798C133.495 33.2498 133.155 33.3518 132.679 33.2498C132.237 33.1478 131.863 32.9778 131.591 32.7058C130.673 31.8558 129.925 30.9378 129.279 30.0198C128.531 29.1018 127.817 28.0138 127.069 26.9938C126.695 27.4698 126.253 28.0138 125.981 28.3878C125.607 28.6598 125.335 29.0338 124.961 29.4758C124.587 29.8498 124.111 30.4958 123.771 30.8698C122.921 31.7878 122.003 33.0798 120.915 33.2498C120.371 33.4198 119.895 33.2498 119.419 33.0798ZM121.323 45.3878C121.221 45.3878 121.221 45.3878 121.119 45.3878C120.949 45.2178 120.745 44.9458 120.677 44.5718C120.677 44.1978 120.575 43.9258 120.575 43.6538C120.575 43.2798 120.575 42.8038 120.473 42.4638C120.473 41.9878 120.473 41.6138 120.473 41.2398C120.473 40.5938 120.473 40.0498 120.473 39.5058C120.473 38.9618 120.473 38.3158 120.575 37.7718C120.677 37.3978 120.745 37.1258 120.949 36.9218C121.119 36.6498 121.391 36.5478 121.663 36.3778C122.309 36.1058 122.955 36.0038 123.601 36.0038H138.969C139.445 36.0038 139.445 36.1058 139.887 36.1058C140.363 36.2078 140.737 36.2758 141.179 36.4798C141.655 36.6498 141.927 36.9218 142.097 37.3978C142.199 37.7718 142.301 38.2138 142.369 38.6898C142.369 39.0298 142.369 39.5058 142.369 40.0498C142.369 40.5258 142.369 41.0698 142.369 41.5458C142.369 42.0898 142.369 42.6338 142.301 43.1098C142.301 43.6538 142.199 44.0958 141.995 44.4698C141.995 44.7418 141.927 44.9458 141.825 45.2178C141.723 45.3878 141.553 45.4898 141.281 45.5918C141.009 45.6598 140.737 45.7618 140.533 45.7618C140.261 45.7618 139.989 45.7618 139.717 45.7618H123.159C122.785 45.6598 122.513 45.6598 122.139 45.6598C121.765 45.6598 121.493 45.5918 121.323 45.3878ZM124.519 41.4438C124.519 41.5458 124.519 41.6138 124.519 41.7158C124.519 41.8858 124.621 41.8858 124.621 41.9878C124.723 41.9878 124.791 42.0898 124.893 42.0898C124.995 42.0898 125.097 42.0898 125.165 42.0898C125.267 42.0898 125.437 42.0898 125.641 42.0898H135.569C135.841 42.0898 136.215 42.0898 136.487 42.0898C136.759 42.1578 136.963 42.1578 137.235 42.1578C137.507 42.1578 137.779 42.1578 138.051 42.0898C138.221 42.0898 138.323 41.9878 138.425 41.8858C138.425 41.8178 138.527 41.6138 138.527 41.4438C138.527 41.2398 138.527 41.0698 138.527 40.7978C138.527 40.5258 138.527 40.3218 138.323 40.1518C138.221 39.9818 137.949 39.8798 137.677 39.8798C137.405 39.8798 137.133 39.8798 136.963 39.8798H128.123C127.647 39.8798 127.205 39.8798 126.729 39.8798C126.185 39.8798 125.743 39.8798 125.267 39.8798C125.097 39.8798 124.893 39.8798 124.791 39.8798C124.723 39.9818 124.621 40.0498 124.621 40.2538C124.519 40.4238 124.519 40.5258 124.519 40.6958C124.519 40.8998 124.519 40.9678 124.519 41.1718V41.2398C124.519 41.3418 124.519 41.3418 124.519 41.4438ZM142.437 31.8558C142.335 32.1618 142.233 32.4338 142.233 32.6038C142.165 32.8078 142.063 33.0798 141.893 33.2498C141.791 33.4198 141.621 33.6238 141.315 33.7938C141.043 33.9978 140.669 34.0658 140.397 34.0658C140.057 34.0658 139.683 33.8958 139.309 33.7258C139.037 33.5218 138.833 33.2498 138.663 32.9778C138.493 32.6038 138.391 32.2298 138.391 31.8558C138.289 31.4138 138.289 31.0398 138.187 30.5978C138.187 30.1218 138.187 29.7478 138.289 29.3058C138.289 28.8298 138.289 28.4558 138.289 28.1158C138.289 27.0958 138.289 26.1778 138.289 25.1578C138.289 23.7638 138.289 22.4038 138.289 21.0098C138.289 20.7378 138.391 20.4658 138.391 20.2958C138.493 19.9218 138.663 19.5478 138.935 19.1738C139.105 18.9018 139.411 18.7318 139.683 18.6298C140.057 18.5278 140.397 18.5278 140.771 18.5278C141.519 18.7318 141.791 18.9018 142.063 19.3438C142.709 20.6358 142.437 22.6758 142.437 24.1378C142.437 26.1778 142.437 28.2858 142.437 30.2918C142.437 30.8698 142.437 31.3118 142.437 31.8558Z" fill="#70D1E9"/>
<path d="M92.6173 41.5799C92.6173 38.1799 96.5613 37.3299 101.729 37.1939V37.1259L101.763 34.6779C99.6893 34.6779 94.5893 34.6099 92.6853 34.4739C91.9713 34.4059 91.6313 34.3719 91.0533 33.8279C90.7473 33.5559 90.6113 33.0799 90.6113 32.6039C90.6113 32.1619 90.7813 31.7199 91.0533 31.4479C91.7333 30.7339 93.3993 30.7679 93.4673 30.7679H112.915C113.595 30.7679 114.275 30.7679 114.921 30.8019C115.533 30.8359 116.213 30.9379 116.689 31.3799C117.165 31.7539 117.165 32.1959 117.165 32.7399C117.165 33.4199 116.757 33.9639 116.077 34.2019C115.159 34.5419 114.037 34.5759 113.085 34.6099C110.841 34.6779 108.665 34.7459 106.387 34.7459L106.353 37.1939C111.249 37.2959 114.887 37.9419 114.887 41.5799C114.887 45.7959 109.889 45.9999 103.735 45.9999C97.6153 45.9999 92.6173 45.7959 92.6173 41.5799ZM111.895 25.5999C112.745 25.9739 113.595 26.5519 114.309 27.1299C115.057 27.7759 114.819 29.2719 113.697 29.4759C112.269 29.7819 110.569 29.3399 109.277 28.7619C108.053 28.2179 107.033 27.7419 106.013 27.1639C105.401 26.8239 103.667 25.9399 103.667 25.9399C103.667 25.9399 101.593 26.8579 100.879 27.1979C99.6893 27.8099 98.8053 28.1839 97.6153 28.7279C96.7313 29.1019 95.7793 29.7139 94.7593 29.6459C93.9433 29.6119 93.0253 29.2719 92.8553 28.3879C92.8213 28.1499 92.8553 27.8779 92.9233 27.6059C93.0933 26.9599 93.5693 26.5519 94.1813 26.1779L96.5273 25.0219C97.3093 24.6139 97.7853 24.4099 98.6013 24.0359C99.3493 23.6279 100.505 23.0499 101.389 22.7439V21.6899H97.7853C97.0713 21.6899 96.6293 21.7239 95.9493 21.6559C95.4393 21.5879 94.7933 21.6559 94.3173 21.4179C94.0453 21.2819 93.8413 21.0439 93.7053 20.7719C93.4333 20.3299 93.3653 19.6839 93.6033 19.2079C93.9433 18.4939 94.8953 18.1199 95.7453 18.1199H96.5273C97.2413 18.1539 97.4113 18.1199 98.1253 18.1199H109.889C111.385 18.1199 113.935 17.7459 114.411 19.6839C114.955 21.8939 111.283 21.8259 109.855 21.7579C108.461 21.6899 106.353 21.7579 106.353 21.7579V22.8119C106.625 22.9479 106.931 23.1179 107.237 23.2199C107.509 23.3559 107.747 23.4919 108.019 23.6279C108.461 23.8659 108.903 24.0359 109.345 24.2739C110.195 24.6819 111.045 25.1579 111.895 25.5999ZM110.399 41.5799C110.399 40.1179 106.863 40.4919 103.735 40.4919C100.641 40.4919 97.3093 40.1179 97.3093 41.5799C97.3093 42.8719 100.641 42.6679 103.735 42.6679C106.863 42.6679 110.399 43.2799 110.399 41.5799Z" fill="#70D1E9"/>
<path d="M57.2887 33.1139C56.3707 32.4679 55.7247 31.5159 55.3507 30.3939C54.9087 29.2379 54.7727 28.1499 54.7727 27.0279C54.7727 25.8379 54.9767 24.8519 55.3507 23.8659C55.7927 22.9139 56.3027 22.0639 57.0167 21.4179C57.7307 20.6699 58.5127 20.1259 59.5327 19.7519C60.4507 19.3099 61.5387 19.1059 62.6947 19.1059C63.1367 19.0379 63.4767 19.0379 63.8847 19.1059C64.2587 19.1059 64.7007 19.1739 65.0747 19.2419C65.2447 19.3099 65.4827 19.3099 65.6867 19.3779C65.9247 19.3779 66.1287 19.4799 66.2647 19.5479C66.7747 19.6839 67.1827 19.8199 67.6247 20.0579C68.0667 20.2619 68.4407 20.4659 68.7807 20.6699C69.0527 20.8059 69.4267 21.1119 69.7327 21.4179C70.1747 21.8599 70.4467 22.1999 70.7187 22.6759C70.9907 23.1179 71.2287 23.6279 71.2967 24.2059C71.4327 24.7159 71.5007 25.2259 71.6027 25.7359C71.6707 26.2119 71.7387 26.7219 71.6707 27.2999C71.6707 27.5719 71.6027 27.9459 71.6027 28.2179C71.5007 28.5919 71.5007 28.9659 71.3647 29.2379C71.2287 30.0879 70.9227 30.9719 70.5147 31.6859C70.0047 32.4679 69.4267 33.0119 68.6447 33.5559C68.0667 33.8959 67.4887 34.2019 66.8427 34.3379C66.2647 34.5079 65.6187 34.6099 65.0067 34.7459C64.7687 34.8139 64.5647 34.8139 64.3267 34.8139C64.1907 34.8139 63.9527 34.8139 63.7487 34.8819H63.1367C62.9667 34.8819 62.7627 34.8819 62.5247 34.8139C62.2527 34.8139 61.9467 34.8139 61.6747 34.7459C61.3347 34.7459 61.0287 34.6779 60.7227 34.6779C60.0767 34.5759 59.5327 34.4059 58.9547 34.1339C58.3427 33.8279 57.7987 33.5559 57.2887 33.1139ZM79.2187 22.9479V25.1579C79.2867 26.0419 79.2867 27.0279 79.2867 28.0479V33.5559C79.2867 34.5759 79.2867 35.4939 79.2187 36.3439V40.2199C79.1507 40.9339 79.2187 41.6819 79.2187 42.2939C79.2187 42.7359 79.2187 43.1779 79.1507 43.5179C79.1507 43.8919 79.0827 44.1639 78.9127 44.4019C78.8447 44.6059 78.7087 44.7419 78.6407 44.9799C78.4707 45.1159 78.3347 45.3199 77.9607 45.4559C77.5527 45.7619 76.9747 45.8299 76.3967 45.7619C76.0227 45.6599 75.7507 45.5239 75.5467 45.3199C75.3427 45.1839 75.1727 44.9119 75.0367 44.6059C74.9007 44.2999 74.7987 44.0279 74.7987 43.7219C74.7307 43.5179 74.6627 43.2459 74.6627 43.1099V42.7359L74.5947 22.5739C74.5947 21.9959 74.5947 21.4179 74.7307 20.7039C74.7987 20.0579 75.0367 19.5479 75.3427 19.2079C75.6147 19.0039 75.8867 18.8339 76.0907 18.7659C76.3967 18.6979 76.6687 18.6979 77.0427 18.6979C77.4167 18.6979 77.7567 18.7659 78.1307 19.0039C78.4027 19.2079 78.6407 19.5139 78.7767 19.8539C78.9807 20.3639 79.1507 20.8739 79.1507 21.3499C79.1507 21.8599 79.1507 22.4379 79.2187 22.9479ZM71.7387 38.6219C72.0447 38.7239 72.3167 38.8599 72.5207 38.9959C72.9627 39.4379 73.2347 39.8799 73.2347 40.4239C73.2347 40.7979 73.0987 41.1719 72.8607 41.4439C72.6567 41.7159 72.4187 41.9199 72.1127 42.0219C71.8747 42.0899 71.6707 42.1579 71.4327 42.1579C71.1607 42.2259 70.9227 42.2259 70.7187 42.2259H67.4887C66.7067 42.2259 65.9247 42.2259 65.0747 42.2939H62.6947C61.8787 42.2259 61.2667 42.2259 60.6547 42.2259H57.0847C56.6427 42.2259 56.2347 42.1579 55.7927 42.0899C55.5547 42.0219 55.3507 41.9199 55.1467 41.8519C54.9087 41.7839 54.7727 41.7159 54.5687 41.5459C54.2967 41.2399 54.1267 40.8659 54.1267 40.2879C54.1267 39.8119 54.2967 39.4379 54.5687 39.1319C54.7047 38.9279 54.9087 38.7919 55.2147 38.7239C55.4867 38.6219 55.7927 38.5539 55.9967 38.4859C56.3027 38.4179 56.4727 38.4179 56.6427 38.4179H69.4947C69.9367 38.4179 70.3787 38.4179 70.7187 38.4859C71.0927 38.4859 71.3647 38.5539 71.7387 38.6219ZM59.2947 26.4159C59.2267 26.8579 59.2267 27.2999 59.2947 27.7759C59.3967 28.2859 59.5327 28.7279 59.7367 29.1019C60.2127 29.8159 60.8927 30.3259 61.7427 30.6659C62.3887 30.9039 63.0347 30.9719 63.6807 30.9719C64.0547 30.9039 64.3267 30.9039 64.7007 30.8359C65.0067 30.8359 65.3127 30.6659 65.6187 30.5299C66.0607 30.3259 66.4347 29.9519 66.7067 29.5099C67.0127 29.0339 67.1147 28.5919 67.2507 28.0819C67.4207 27.2999 67.3527 26.6539 67.1147 25.9059C67.0127 25.5999 66.8427 25.2939 66.7067 25.0559C66.5707 24.9199 66.5027 24.7159 66.3327 24.6479C66.2647 24.4779 66.1287 24.3419 65.9247 24.2059C65.7547 24.1039 65.5507 24.0019 65.3807 23.9339C65.2107 23.7979 65.0067 23.7299 64.7687 23.6279C64.1907 23.4919 63.6127 23.4239 62.9667 23.4239C62.3887 23.4239 61.8107 23.4919 61.3347 23.7299C60.8247 23.9339 60.3827 24.2059 60.0087 24.7159C59.6687 25.1579 59.4647 25.7359 59.2947 26.4159Z" fill="#70D1E9"/>
<path d="M49.7938 32.1619C50.5418 32.1959 51.3918 32.3319 52.0378 32.8419C52.3438 33.0799 52.5138 33.4879 52.5138 33.8959C52.5138 34.3379 52.3438 34.9839 52.0718 35.2219C51.3578 35.9019 49.5898 35.8339 49.5218 35.8339L31.3998 35.8679C30.3798 35.9019 29.1218 35.9699 28.3738 35.3579C27.8638 34.9839 27.5918 34.5419 27.5918 34.0319C27.5918 33.4199 28.0678 32.6379 28.7818 32.3999C29.7338 32.0939 30.7538 32.1959 31.7738 32.1619C33.9838 32.0939 34.6978 32.1619 36.9758 32.1619V30.4619H34.7998H34.2218C32.8278 30.4619 30.8558 30.3939 29.9378 29.5099C29.0538 28.7619 29.1558 26.6539 29.1898 26.5519V20.3299C29.1898 20.2279 29.1558 19.1739 29.4618 18.7999C29.8358 18.3239 30.1418 18.1199 30.7878 18.0519C31.1618 17.9839 31.9438 17.9839 31.9438 17.9839H47.0398C47.4478 17.9839 47.8218 17.9839 48.2298 18.0859C48.6378 18.1539 49.0118 18.2219 49.3178 18.5279C49.5898 18.7319 49.7258 19.0379 49.7938 19.3099C49.8618 19.5819 49.8958 19.8199 49.8278 20.0919C49.7258 20.8059 49.0798 21.3499 48.1278 21.3499H33.6098V22.6759C34.9698 22.7099 42.4158 22.6759 42.4498 22.6759H45.5778C45.7478 22.6759 45.9858 22.7099 46.2238 22.6759H47.1078C47.5498 22.6759 48.0938 22.7099 48.5018 22.9479C49.1478 23.2199 49.2838 23.8999 49.2158 24.4099C49.1818 24.6819 49.1818 24.9879 48.9778 25.1919C48.5018 25.7359 47.9578 25.8039 47.3798 25.8039H33.5758L33.6098 26.6539C33.5758 27.1299 33.6778 26.8239 33.8138 26.8579C34.0858 26.9939 34.8678 27.0619 35.6498 27.0619H35.8198C36.5338 27.0279 43.5718 27.0279 44.2858 27.0619H45.8838C46.0538 27.0619 46.1558 27.0619 46.3258 27.0279H46.9038C47.5838 27.0279 48.2978 27.0279 48.9778 27.1979C49.0798 27.1979 49.2158 27.2659 49.3178 27.2999C50.4398 27.9459 50.3038 29.4759 49.0798 29.9859C48.1618 30.3939 47.0398 30.4619 46.1218 30.4619H44.7278C44.3538 30.4959 42.9938 30.4959 41.7698 30.4959C41.8038 31.0399 41.8038 31.6519 41.8038 32.1619C44.3198 32.1619 47.8558 32.0599 49.7938 32.1619ZM28.6798 41.3079C28.6798 37.4659 33.6778 36.8879 39.7978 36.8879C45.9518 36.8879 50.9498 37.0239 50.9498 41.3079C50.9498 45.5239 45.9518 45.7279 39.7978 45.7279C33.6778 45.7279 28.6798 45.5239 28.6798 41.3079ZM46.4618 41.3079C46.4618 39.8459 42.9258 39.9139 39.7978 39.9139C36.7038 39.9139 33.3718 39.8459 33.3718 41.3079C33.3718 42.5999 36.7038 42.7019 39.7978 42.7019C42.9258 42.7019 46.4618 43.0079 46.4618 41.3079Z" fill="#70D1E9"/>
<path d="M13.26 28.8298L7.65 33.5558C6.8 34.3378 5.78 35.2898 4.59 35.6298C3.774 35.8338 2.686 35.5618 2.176 34.8818C1.462 33.8278 2.278 32.8418 2.958 32.0258C4.318 30.4618 5.61 29.0678 7.14 27.7078C8.126 26.8578 10.778 24.2398 10.778 24.2398C10.778 24.2398 10.472 20.5678 11.424 19.6158C12.002 19.0718 13.328 18.9358 14.042 19.1398C15.096 19.4458 15.572 20.2618 15.708 21.3158C15.776 22.1658 15.47 23.7638 16.014 24.4438C17.68 26.5858 20.604 29.2038 22.644 31.6518C23.63 32.8418 24.922 34.7458 23.018 35.6638C21.692 36.3098 20.298 35.3578 19.414 34.4738L13.26 28.8298ZM23.324 39.7438C23.46 39.7778 23.596 39.7438 23.732 39.7438C24.48 39.8118 25.16 39.9818 25.772 40.5258C26.078 40.8318 26.248 41.2398 26.248 41.7158C26.248 42.1918 26.078 42.8718 25.806 43.1778C25.092 43.8918 23.426 43.8238 23.358 43.8238H4.318C4.114 43.8238 3.876 43.8578 3.638 43.8578C2.686 43.8918 1.462 43.9598 0.714 43.3138C0.272 42.9058 0 42.3958 0 41.8518C0 41.1718 0.442 40.3218 1.122 40.0498C2.04 39.7098 3.026 39.7778 4.012 39.7438H4.182C6.358 39.7098 8.67 39.7098 10.914 39.7438L10.88 35.4598C10.88 35.4598 10.914 34.3038 11.832 33.6578C12.988 32.8078 15.198 33.6238 15.198 35.2898L15.232 39.7438C17.374 39.7098 18.904 39.7098 21.012 39.7438C21.828 39.7778 22.61 39.6758 23.324 39.7438Z" fill="#70D1E9"/>
<path d="M181.759 0.108765C180.182 0.108765 178.903 1.39956 178.903 2.99081V16.6914C178.903 20.2752 176.013 23.1908 172.462 23.1908H164.647C161.096 23.1908 158.206 20.2752 158.206 16.6914V15.6516H174.136C175.713 15.6516 176.993 14.3608 176.993 12.7696C176.993 11.1783 175.713 9.88755 174.136 9.88755H158.206V2.99081C158.206 1.39956 156.927 0.108765 155.35 0.108765C153.773 0.108765 152.494 1.39956 152.494 2.99081V16.6914C152.494 23.4537 157.946 28.9549 164.647 28.9549H172.462C179.163 28.9549 184.615 23.4537 184.615 16.6914V2.99081C184.615 1.39956 183.336 0.108765 181.759 0.108765Z" fill="#4CC5E4"/>
<path d="M212.375 21.4335H237.011C238.588 21.4335 239.867 20.1427 239.867 18.5514C239.867 16.9602 238.588 15.6694 237.011 15.6694H212.375C211.084 15.6694 209.98 14.7364 209.85 13.584H235.873C237.45 13.584 238.729 12.2932 238.729 10.7019V8.148C238.729 3.65494 235.107 0 230.654 0H212.877C211.3 0 210.021 1.29079 210.021 2.88204C210.021 4.47329 211.3 5.76409 212.877 5.76409H230.654C231.845 5.76409 232.835 6.65954 232.993 7.81789H206.98C205.403 7.81789 204.124 9.10868 204.124 10.6999V13.3566C204.124 17.8102 207.825 21.4315 212.375 21.4315V21.4335Z" fill="#4CC5E4"/>
<path d="M238.99 23.1433H205.895C204.318 23.1433 203.039 24.4341 203.039 26.0254C203.039 27.6166 204.318 28.9074 205.895 28.9074H238.99C240.567 28.9074 241.846 27.6166 241.846 26.0254C241.846 24.4341 240.567 23.1433 238.99 23.1433Z" fill="#4CC5E4"/>
<path d="M238.155 40.2358H215.851C212.947 40.2358 210.587 37.8519 210.587 34.9224V33.424C210.587 31.8328 209.308 30.542 207.731 30.542C206.154 30.542 204.875 31.8328 204.875 33.424V34.9224C204.875 41.0304 209.799 45.9999 215.853 45.9999H238.157C239.734 45.9999 241.013 44.7091 241.013 43.1178C241.013 41.5266 239.734 40.2358 238.157 40.2358H238.155Z" fill="#4CC5E4"/>
<path d="M198.657 0.100824C198.224 0.0336163 194.357 -0.500095 191.646 1.83835C190.57 2.76741 189.287 4.49703 189.287 7.46012V43.1101C189.287 44.7013 190.567 45.9921 192.144 45.9921C193.72 45.9921 195 44.7013 195 43.1101V7.46012C195 6.84536 195.119 6.43025 195.354 6.22269C195.846 5.79177 197.084 5.69887 197.791 5.79573C199.341 6.03095 200.794 4.9576 201.037 3.39205C201.282 1.81859 200.216 0.34396 198.659 0.0968711L198.657 0.100824Z" fill="#4CC5E4"/>
</g>
<defs>
<clipPath id="clip0_50_2067">
<rect width="241.846" height="45.9999" fill="white"/>
</clipPath>
</defs>
</svg>
